<svg id="aafe3b8c-9b9a-49a0-aa40-b6283f4ec2ce" data-name="圖層 1" xmlns="http://www.w3.org/2000/svg" viewBox="0 0 1246.13 244.51"><defs><style>.a9c2cf65-9a3e-4709-b2bf-e58e90b05d76{fill:#fff;}</style></defs><path class="a9c2cf65-9a3e-4709-b2bf-e58e90b05d76" d="M0,192,102.6-.21h46.73L178.87,192H137l-7.26-43.56H70.37L46.73,192Zm83-79.08h45.39l-9.94-66.84Z"/><path class="a9c2cf65-9a3e-4709-b2bf-e58e90b05d76" d="M195.61,192,222.47,50.53H256L255,65.16a136.29,136.29,0,0,1,23.5-10.9,130.47,130.47,0,0,1,26.19-6.71L299,78a169,169,0,0,0-16.52,3.58q-9,2.4-17.45,5.37a94.17,94.17,0,0,0-14.37,6.27L231.87,192Z"/><path class="a9c2cf65-9a3e-4709-b2bf-e58e90b05d76" d="M498.36,194.06q-15.42,0-26.13-5.74A39.44,39.44,0,0,1,456,172.65a45.18,45.18,0,0,1-5.54-22.45,59.88,59.88,0,0,1,1.12-11.29l15.61-81.46h35.34l-15,78.54a55.06,55.06,0,0,0-1.12,10.24q0,7.72,4.32,11.07t14.1,3.34q12,0,18-5.64t8.46-19l15-78.54h35.35l-15.8,82.72q-5.26,28.41-21.81,41.15T498.36,194.06Z"/><path class="a9c2cf65-9a3e-4709-b2bf-e58e90b05d76" d="M333.05,244.51q-4.29,0-10.88-.45t-12.89-1.19a94.46,94.46,0,0,1-10.07-1.64l5.91-30.74a73.54,73.54,0,0,0,13.7,2.83,116.17,116.17,0,0,0,14.23,1.05q19.6,0,32.5-5.67t15.58-20l1.34-7.46Q366.09,192,344.06,192q-16.65,0-29-6.72t-17.73-21.48Q292,149,296.26,124.84q7-38.19,26.32-57.74t48.88-19.55q13.43,0,21.62,4.18A49.62,49.62,0,0,1,408,63.66l4.56-13.13h31.16l-25,131.61a83.9,83.9,0,0,1-13.3,32.08q-9.8,14.17-27.53,22.23T333.05,244.51Zm24.44-82.07a46.84,46.84,0,0,0,16.65-2.83,52.49,52.49,0,0,0,14-7.91l11.82-61.77a31.85,31.85,0,0,0-10.88-9.7,31.47,31.47,0,0,0-14.64-3.14q-17.46,0-27,12.39t-14.1,35.06Q329,146,334.39,154.24T357.49,162.44Z"/><path class="a9c2cf65-9a3e-4709-b2bf-e58e90b05d76" d="M623.51,192.08a113.41,113.41,0,0,1-23.23-2.24,58.51,58.51,0,0,1-17.66-6.29L589,150.48a78.27,78.27,0,0,0,17.86,7.26,71.55,71.55,0,0,0,19.2,2.77q9.59,0,14.78-1.81t6.53-8.22a10.42,10.42,0,0,0,.19-2.13c0-3.55-2-6.19-6-7.89s-9.86-4.05-17.67-7q-13-5.11-19.77-12.48t-6.72-19.09c0-1.57.06-3.17.19-4.8a41.09,41.09,0,0,1,.77-5.23Q602.2,71.56,616.5,61t41.38-10.56a114.07,114.07,0,0,1,20.63,1.92,98.12,98.12,0,0,1,16.61,4.26L688.79,89.9a71,71,0,0,0-16.13-5.76,72.11,72.11,0,0,0-15.17-1.7,64,64,0,0,0-14.69,1.49,9.41,9.41,0,0,0-7.58,7.68,7,7,0,0,0-.19,1.92q0,4.05,4.8,6.18t15.93,6q16.71,5.55,23.23,13.65a29.71,29.71,0,0,1,6.53,19.2,46.26,46.26,0,0,1-.38,5.76q-.39,3-1,6.18a54.48,54.48,0,0,1-8.93,21.76q-6.63,9.39-19.1,14.62T623.51,192.08Z"/><path class="a9c2cf65-9a3e-4709-b2bf-e58e90b05d76" d="M695,192,731.5,0h43.24l-14.5,76h67.68l14.5-76h43.24L849.14,192H805.9l14.5-76H752.72l-14.51,76Z"/><path class="a9c2cf65-9a3e-4709-b2bf-e58e90b05d76" d="M864.12,192,932.54,64h35.54l19.83,128h-35l-4.11-27.23h-35L899.13,192Zm59.13-54.06H949l-5.72-37.56Z"/><path class="a9c2cf65-9a3e-4709-b2bf-e58e90b05d76" d="M1050.61,192q-17.74,0-30.22-7.26a38.86,38.86,0,0,1-17.51-21.5q-5-14.25-1-35.24,6.07-32.38,25-48.19T1076.05,64a92,92,0,0,1,19.73,1.81,55,55,0,0,1,15.28,6l-4.9,25.13A44.77,44.77,0,0,0,1093.68,92a67.77,67.77,0,0,0-16.23-1.81q-17.73,0-28.71,8.16T1033.81,128q-3.74,19.7,2,28.76t27,9.07a75.2,75.2,0,0,0,16.34-1.81,70.57,70.57,0,0,0,15.64-5.45l-4.91,25.91Q1072.55,192,1050.61,192Z"/><path class="a9c2cf65-9a3e-4709-b2bf-e58e90b05d76" d="M1111.06,192,1143.35,18.5h34.26l-15.1,83.06L1204.76,64h41.37l-47.36,44.43L1237.18,192h-38.41l-26.86-62.37-17.72,15.81L1145.32,192Z"/></svg>