<?xml version="1.0" encoding="UTF-8"?>
<svg width="822px" height="580px" viewBox="0 0 822 580" version="1.1" xmlns="http://www.w3.org/2000/svg" xmlns:xlink="http://www.w3.org/1999/xlink">
    <title>undraw_Scrum_board_re_wk7v</title>
    <g id="Product---ArgusHack" stroke="none" stroke-width="1" fill="none" fill-rule="evenodd">
        <g id="Desktop-HD-1080P" transform="translate(-945.000000, -1468.000000)" fill-rule="nonzero">
            <g id="Features" transform="translate(218.000000, 712.000000)">
                <g id="undraw_Scrum_board_re_wk7v" transform="translate(727.000000, 756.000000)">
                    <path d="M182.079581,58.0024477 L129.679681,58.0024477 C119.190205,58.0119416 110.689175,66.5129725 110.679681,77.0024477 L110.679681,133.812448 C110.009761,133.772448 109.339831,133.712448 108.679681,133.632448 C74.1987263,130.004743 48.1814515,100.669697 48.6984406,66.0022886 C49.2154297,31.3348806 76.0958774,2.78868928 110.669673,0.190785753 C145.243469,-2.40711778 176.087962,21.8015739 181.779771,56.0024477 C181.889681,56.6624177 181.989781,57.3324677 182.079581,58.0024477 Z" id="Path" fill="#F2F2F2"></path>
                    <path d="M800.679721,56.0024477 L129.679721,56.0024477 C118.086996,56.0151237 108.692397,65.4097226 108.679721,77.0024477 L108.679721,431.002448 C108.692397,442.595173 118.086996,451.989772 129.679721,452.002448 L800.679721,452.002448 C812.272446,451.989772 821.667045,442.595173 821.679721,431.002448 L821.679721,77.0024477 C821.667045,65.4097226 812.272446,56.0151237 800.679721,56.0024477 Z M819.679721,431.002448 C819.670227,441.491923 811.169196,449.992954 800.679721,450.002448 L129.679721,450.002448 C119.190245,449.992954 110.689215,441.491923 110.679721,431.002448 L110.679721,77.0024477 C110.689215,66.5129725 119.190245,58.0119416 129.679721,58.0024477 L800.679721,58.0024477 C811.169196,58.0119416 819.670227,66.5129725 819.679721,77.0024477 L819.679721,431.002448 Z" id="Shape" fill="#3F3D56"></path>
                    <path d="M767.679721,113.372078 L162.679721,113.372078 C162.127436,113.372078 161.679721,112.924362 161.679721,112.372078 C161.679721,111.819793 162.127436,111.372078 162.679721,111.372078 L767.679721,111.372078 C768.232005,111.372078 768.679721,111.819793 768.679721,112.372078 C768.679721,112.924362 768.232005,113.372078 767.679721,113.372078 Z" id="Path" fill="#3F3D56"></path>
                    <path d="M333.679721,409.002448 C333.127436,409.002448 332.679721,408.554732 332.679721,408.002448 L332.679721,79.0024477 C332.679721,78.450163 333.127436,78.0024477 333.679721,78.0024477 C334.232005,78.0024477 334.679721,78.450163 334.679721,79.0024477 L334.679721,408.002448 C334.679693,408.554721 334.231994,409.002448 333.679721,409.002448 Z" id="Path" fill="#3F3D56"></path>
                    <path d="M484.679721,409.002448 C484.127436,409.002448 483.679721,408.554732 483.679721,408.002448 L483.679721,79.0024477 C483.679721,78.450163 484.127436,78.0024477 484.679721,78.0024477 C485.232005,78.0024477 485.679721,78.450163 485.679721,79.0024477 L485.679721,408.002448 C485.679693,408.554721 485.231994,409.002448 484.679721,409.002448 Z" id="Path" fill="#3F3D56"></path>
                    <path d="M635.679721,409.002448 C635.127436,409.002448 634.679721,408.554732 634.679721,408.002448 L634.679721,79.0024477 C634.679721,78.450163 635.127436,78.0024477 635.679721,78.0024477 C636.232005,78.0024477 636.679721,78.450163 636.679721,79.0024477 L636.679721,408.002448 C636.679693,408.554721 636.231994,409.002448 635.679721,409.002448 L635.679721,409.002448 Z" id="Path" fill="#3F3D56"></path>
                    <path d="M236.595371,216.589848 L200.055371,216.589848 C197.571232,216.587092 195.558126,214.573987 195.555371,212.089848 L195.555371,168.970238 C195.558126,166.486099 197.571232,164.472993 200.055371,164.470238 L236.595371,164.470238 C239.07951,164.472993 241.092615,166.486099 241.095371,168.970238 L241.095371,212.089868 C241.092604,214.573999 239.079502,216.587092 236.595371,216.589848 L236.595371,216.589848 Z" id="Path" fill="#9E3CDD"></path>
                    <path d="M288.595371,339.589848 L252.055371,339.589848 C249.571232,339.587092 247.558126,337.573987 247.555371,335.089848 L247.555371,291.970238 C247.558126,289.486099 249.571232,287.472993 252.055371,287.470238 L288.595371,287.470238 C291.07951,287.472993 293.092615,289.486099 293.095371,291.970238 L293.095371,335.089868 C293.092604,337.573999 291.079502,339.587092 288.595371,339.589848 L288.595371,339.589848 Z" id="Path" fill="#9E3CDD"></path>
                    <path d="M406.595491,242.589848 L370.055491,242.589848 C367.57137,242.587048 365.55829,240.573969 365.555491,238.089848 L365.555491,194.970238 C365.55829,192.486117 367.57137,190.473037 370.055491,190.470238 L406.595491,190.470238 C409.079611,190.473037 411.092691,192.486117 411.095491,194.970238 L411.095491,238.089868 C411.09268,240.573981 409.079604,242.587048 406.595491,242.589848 L406.595491,242.589848 Z" id="Path" fill="#9E3CDD"></path>
                    <path d="M559.595491,195.589848 L523.055491,195.589848 C520.57137,195.587048 518.55829,193.573969 518.555491,191.089848 L518.555491,147.970238 C518.55829,145.486117 520.57137,143.473037 523.055491,143.470238 L559.595491,143.470238 C562.079611,143.473037 564.092691,145.486117 564.095491,147.970238 L564.095491,191.089868 C564.09268,193.573981 562.079604,195.587048 559.595491,195.589848 L559.595491,195.589848 Z" id="Path" fill="#9E3CDD"></path>
                    <path d="M700.595491,195.589848 L664.055491,195.589848 C661.57137,195.587048 659.55829,193.573969 659.555491,191.089848 L659.555491,147.970238 C659.55829,145.486117 661.57137,143.473037 664.055491,143.470238 L700.595491,143.470238 C703.079611,143.473037 705.092691,145.486117 705.095491,147.970238 L705.095491,191.089868 C705.09268,193.573981 703.079604,195.587048 700.595491,195.589848 L700.595491,195.589848 Z" id="Path" fill="#9E3CDD"></path>
                    <path d="M765.595491,207.589848 L729.055491,207.589848 C726.57137,207.587048 724.55829,205.573969 724.555491,203.089848 L724.555491,159.970238 C724.55829,157.486117 726.57137,155.473037 729.055491,155.470238 L765.595491,155.470238 C768.079611,155.473037 770.092691,157.486117 770.095491,159.970238 L770.095491,203.089868 C770.09268,205.573981 768.079604,207.587048 765.595491,207.589848 Z" id="Path" fill="#E6E6E6"></path>
                    <path d="M736.595491,284.589848 L700.055491,284.589848 C697.57137,284.587048 695.55829,282.573969 695.555491,280.089848 L695.555491,236.970238 C695.55829,234.486117 697.57137,232.473037 700.055491,232.470238 L736.595491,232.470238 C739.079611,232.473037 741.092691,234.486117 741.095491,236.970238 L741.095491,280.089868 C741.09268,282.573981 739.079604,284.587048 736.595491,284.589848 L736.595491,284.589848 Z" id="Path" fill="#E6E6E6"></path>
                    <path d="M612.595491,268.589848 L576.055491,268.589848 C573.57137,268.587048 571.55829,266.573969 571.555491,264.089848 L571.555491,220.970238 C571.55829,218.486117 573.57137,216.473037 576.055491,216.470238 L612.595491,216.470238 C615.079611,216.473037 617.092691,218.486117 617.095491,220.970238 L617.095491,264.089868 C617.09268,266.573981 615.079604,268.587048 612.595491,268.589848 L612.595491,268.589848 Z" id="Path" fill="#FE004D"></path>
                    <path d="M541.595491,284.589848 L505.055491,284.589848 C502.57137,284.587048 500.55829,282.573969 500.555491,280.089848 L500.555491,236.970238 C500.55829,234.486117 502.57137,232.473037 505.055491,232.470238 L541.595491,232.470238 C544.079611,232.473037 546.092691,234.486117 546.095491,236.970238 L546.095491,280.089868 C546.09268,282.573981 544.079604,284.587048 541.595491,284.589848 L541.595491,284.589848 Z" id="Path" fill="#E6E6E6"></path>
                    <path d="M388.595491,352.589848 L352.055491,352.589848 C349.57137,352.587048 347.55829,350.573969 347.555491,348.089848 L347.555491,304.970238 C347.55829,302.486117 349.57137,300.473037 352.055491,300.470238 L388.595491,300.470238 C391.079611,300.473037 393.092691,302.486117 393.095491,304.970238 L393.095491,348.089868 C393.09268,350.573981 391.079604,352.587048 388.595491,352.589848 Z" id="Path" fill="#E6E6E6"></path>
                    <path d="M203.595371,295.589848 L167.055371,295.589848 C164.571232,295.587092 162.558126,293.573987 162.555371,291.089848 L162.555371,247.970238 C162.558126,245.486099 164.571232,243.472993 167.055371,243.470238 L203.595371,243.470238 C206.07951,243.472993 208.092615,245.486099 208.095371,247.970238 L208.095371,291.089868 C208.092604,293.573999 206.079502,295.587092 203.595371,295.589848 L203.595371,295.589848 Z" id="Path" fill="#FE004D"></path>
                    <path d="M306.595371,216.589848 L270.055371,216.589848 C267.571232,216.587092 265.558126,214.573987 265.555371,212.089848 L265.555371,168.970238 C265.558126,166.486099 267.571232,164.472993 270.055371,164.470238 L306.595371,164.470238 C309.07951,164.472993 311.092615,166.486099 311.095371,168.970238 L311.095371,212.089868 C311.092604,214.573999 309.079502,216.587092 306.595371,216.589848 Z" id="Path" fill="#E6E6E6"></path>
                    <path d="M276.679721,97.0024477 L219.679721,97.0024477 C217.470582,97.0024477 215.679721,95.2115867 215.679721,93.0024477 C215.679721,90.7933087 217.470582,89.0024477 219.679721,89.0024477 L276.679721,89.0024477 C278.88886,89.0024477 280.679721,90.7933087 280.679721,93.0024477 C280.679721,95.2115867 278.88886,97.0024477 276.679721,97.0024477 Z" id="Path" fill="#CCCCCC"></path>
                    <path d="M437.679721,97.0024477 L380.679721,97.0024477 C378.470582,97.0024477 376.679721,95.2115867 376.679721,93.0024477 C376.679721,90.7933087 378.470582,89.0024477 380.679721,89.0024477 L437.679721,89.0024477 C439.88886,89.0024477 441.679721,90.7933087 441.679721,93.0024477 C441.679721,95.2115867 439.88886,97.0024477 437.679721,97.0024477 Z" id="Path" fill="#CCCCCC"></path>
                    <path d="M588.679721,97.0024477 L531.679721,97.0024477 C529.470582,97.0024477 527.679721,95.2115867 527.679721,93.0024477 C527.679721,90.7933087 529.470582,89.0024477 531.679721,89.0024477 L588.679721,89.0024477 C590.88886,89.0024477 592.679721,90.7933087 592.679721,93.0024477 C592.679721,95.2115867 590.88886,97.0024477 588.679721,97.0024477 Z" id="Path" fill="#CCCCCC"></path>
                    <path d="M729.679721,97.0024477 L672.679721,97.0024477 C670.470582,97.0024477 668.679721,95.2115867 668.679721,93.0024477 C668.679721,90.7933087 670.470582,89.0024477 672.679721,89.0024477 L729.679721,89.0024477 C731.88886,89.0024477 733.679721,90.7933087 733.679721,93.0024477 C733.679721,95.2115867 731.88886,97.0024477 729.679721,97.0024477 Z" id="Path" fill="#CCCCCC"></path>
                    <path d="M149.012651,389.893798 C146.050868,389.603736 143.369686,388.016684 141.690561,385.559687 C140.011435,383.102691 139.50685,380.02814 140.312581,377.163338 L114.679721,353.302238 L128.232491,349.864098 L153.438221,370.307918 C158.2672,372.018031 161.053931,377.069671 159.92485,382.066541 C158.79577,387.06341 154.107763,390.426077 149.012651,389.893768 L149.012651,389.893798 Z" id="Path" fill="#FFB8B8"></path>
                    <polygon id="Path" fill="#FFB8B8" points="184.407441 566.255448 196.667441 566.255448 202.499441 518.967448 184.405441 518.967448"></polygon>
                    <path d="M181.780428,562.752032 L220.311168,562.752032 L220.311168,577.638902 L196.667288,577.638902 C188.445503,577.638902 181.780428,570.973827 181.780428,562.752032 L181.780428,562.752032 L181.780428,562.752032 Z" id="Path" fill="#2F2E41" transform="translate(201.045798, 570.195467) rotate(179.997380) translate(-201.045798, -570.195467) "></path>
                    <polygon id="Path" fill="#FFB8B8" points="100.348441 557.403448 112.196441 560.557448 129.997441 516.361448 112.512441 511.707448"></polygon>
                    <path d="M96.1486185,558.050071 L134.679242,558.050071 L134.679242,572.936899 L111.035437,572.936899 C102.813674,572.936899 96.1486185,566.271844 96.1486185,558.050071 L96.1486185,558.050071 L96.1486185,558.050071 Z" id="Path" fill="#2F2E41" transform="translate(115.413930, 565.493485) rotate(-165.094787) translate(-115.413930, -565.493485) "></path>
                    <path d="M199.964391,557.302267 L181.257111,557.302267 C178.807834,557.310767 176.757224,555.448063 176.531041,553.009238 L165.174581,435.077638 C165.002935,433.293589 163.592139,431.880791 161.808336,431.706616 C160.024533,431.532442 158.367091,432.64565 157.853581,434.362798 L124.880161,544.562018 C124.155585,546.995537 121.642793,548.426545 119.180161,547.808108 L101.777081,543.456548 C100.550266,543.149996 99.4964452,542.366673 98.8493011,541.280278 C98.202157,540.193884 98.0151723,538.894203 98.3298106,537.669438 C98.6139906,536.559088 126.740461,426.641118 126.986061,425.511238 C133.358871,378.543458 140.983131,365.957528 145.079061,359.196788 C145.418171,358.637208 145.729701,358.122568 146.010211,357.636238 C146.361291,357.027838 148.522661,350.991708 149.893761,347.071788 C150.253792,345.782652 151.136778,344.702956 152.328821,344.094248 C169.539511,335.292488 189.676231,341.385248 195.437951,343.462408 C196.393148,343.79877 197.213542,344.435762 197.776081,345.277838 C215.060751,371.349128 206.578331,522.769048 204.702351,552.858838 C204.540147,555.356827 202.46764,557.302267 199.964391,557.302267 Z" id="Path" fill="#2F2E41"></path>
                    <circle id="Oval" fill="#FFB8B8" cx="151.687591" cy="234.026678" r="24.56103"></circle>
                    <path d="M149.085231,351.840338 L148.908721,351.669438 C148.577671,351.349128 115.853061,319.289558 120.088161,289.645028 C121.899441,276.965338 132.158481,268.863778 149.755891,266.214358 C163.121879,264.22932 175.911612,272.381177 179.755651,285.335458 L197.155551,344.819828 L149.085231,351.840338 Z" id="Path" fill="#CCCCCC"></path>
                    <path d="M132.336211,374.643068 L109.017851,351.472178 C105.775306,348.231713 104.456495,343.535317 105.538121,339.080568 L116.826691,293.161628 C117.510154,290.380376 119.315088,288.006444 121.812354,286.604251 C124.30962,285.202059 127.276133,284.896867 130.006581,285.761238 C135.359449,287.486613 138.374318,293.15141 136.815661,298.555178 L124.931181,338.951668 L144.149441,359.588388 L132.336211,374.643068 Z" id="Path" fill="#CCCCCC"></path>
                    <path d="M257.407771,295.564868 C256.15966,298.266445 253.77902,300.276429 250.906437,301.053969 C248.033854,301.83151 244.964409,301.296737 242.524031,299.593548 L211.394581,315.728018 L212.770471,302.022238 L240.367401,284.943378 C243.570713,280.945601 249.257868,279.975524 253.605317,282.685341 C257.952767,285.395158 259.58636,290.928344 257.407811,295.564868 L257.407771,295.564868 Z" id="Path" fill="#FFB8B8"></path>
                    <path d="M239.124581,305.767058 L208.778331,318.880608 C204.670642,320.641772 199.941998,320.134511 196.301331,317.542148 L157.712401,289.893088 C155.384471,288.224999 153.85133,285.667291 153.477404,282.827933 C153.103479,279.988575 153.922166,277.121147 155.738861,274.907238 C159.329524,270.578012 165.70964,269.883703 170.147471,273.339238 L203.235921,299.381238 L229.536141,289.206068 L239.124581,305.767058 Z" id="Path" fill="#CCCCCC"></path>
                    <path d="M155.759361,241.896978 C158.789361,238.100558 164.450181,237.896468 168.612211,235.392198 C174.064021,232.111868 176.317951,224.781428 174.561091,218.666198 C172.804231,212.550968 167.623011,207.785198 161.682691,205.505908 C155.742371,203.226618 149.133291,203.198428 142.866801,204.300228 C133.536591,205.940708 124.350681,210.295348 118.660251,217.869178 C112.969821,225.443008 111.521671,236.535008 116.678761,244.481608 C119.049021,248.133968 122.707971,251.148748 123.654251,255.398728 C124.896551,260.978268 120.982851,266.359558 116.790041,270.244728 C112.013311,274.671008 106.533041,278.378128 102.348121,283.367668 C98.1632006,288.357208 95.3724806,295.173878 97.2821206,301.399818 C98.8821206,306.616168 103.538031,310.459298 108.643551,312.383898 C113.749071,314.308498 119.309621,314.586598 124.764791,314.693288 C130.061971,314.796898 135.688421,314.668068 140.150791,311.811878 C144.927941,308.754238 147.478601,302.953578 147.667051,297.284828 C147.855501,291.616078 145.961181,286.062308 143.422411,280.990328 C141.909181,277.967188 140.149741,275.037768 139.144231,271.810058 C138.138721,268.582348 137.964531,264.919898 139.574811,261.947318 C141.267481,258.822668 144.691911,256.938318 148.178911,256.253128 C148.360081,256.217528 148.551771,256.185738 148.752261,256.157428 C150.757142,255.897358 152.56827,254.828182 153.764594,253.19846 C154.960919,251.568739 155.438222,249.520446 155.085541,247.529768 C154.688281,245.315428 154.722581,243.195928 155.759361,241.896978 Z" id="Path" fill="#2F2E41"></path>
                    <polygon id="Path" fill="#A0616A" points="483.232441 567.302448 470.972441 567.302448 465.140441 520.014448 483.234441 520.015448"></polygon>
                    <path d="M462.215441,563.799288 L485.859301,563.799288 L485.859301,578.686158 L447.328531,578.686158 L447.328531,578.686158 C447.328531,574.737907 448.89697,570.951368 451.688808,568.159537 C454.480646,565.367706 458.26719,563.799288 462.215441,563.799288 L462.215441,563.799288 Z" id="Path" fill="#2F2E41"></path>
                    <polygon id="Path" fill="#A0616A" points="572.187441 553.415448 561.036441 558.508448 536.082441 517.919448 552.541441 510.401448"></polygon>
                    <path d="M554.311923,556.468856 L577.955803,556.468856 L577.955803,571.355726 L539.425073,571.355726 L539.425073,571.355726 C539.425073,567.407484 540.993497,563.62095 543.785324,560.82912 C546.57715,558.03729 550.363682,556.468856 554.311923,556.468856 L554.311923,556.468856 Z" id="Path" fill="#2F2E41" transform="translate(558.690438, 563.912291) rotate(-24.548550) translate(-558.690438, -563.912291) "></path>
                    <path d="M536.484961,407.859438 C538.862776,406.069947 540.325832,403.319143 540.480449,400.347212 C540.635066,397.37528 539.465362,394.487505 537.286081,392.460928 L551.697681,359.761008 L533.389041,362.863818 L522.510461,393.440528 C519.277656,397.414493 519.528056,403.178352 523.093312,406.856989 C526.658569,410.535626 532.411768,410.966289 536.484961,407.859438 L536.484961,407.859438 Z" id="Path" fill="#A0616A"></path>
                    <path d="M482.450981,554.833818 L470.739061,554.833818 C468.383504,554.825715 466.429659,553.008756 466.250781,550.659988 L459.863781,380.101388 C459.767617,378.778415 460.26007,377.480414 461.209575,376.554161 C462.159079,375.627908 463.468888,375.167781 464.789071,375.296708 L532.523941,382.490068 C534.796348,382.712352 536.542381,384.600785 536.586191,386.883618 L538.005621,462.118968 C538.013189,462.527372 538.092352,462.931282 538.239511,463.312328 L566.024671,535.365068 C566.458351,536.489471 566.422784,537.740861 565.92594,538.838818 C565.429097,539.936774 564.512519,540.789492 563.381601,541.205888 L551.513191,545.578888 C549.380046,546.364325 546.996064,545.435994 545.955821,543.414828 L511.823251,477.045688 C511.637293,476.684924 511.501279,476.30054 511.418951,475.903108 L505.588141,447.809358 C505.238886,446.126751 503.719722,444.946622 502.003008,445.024327 C500.286294,445.102031 498.879957,446.414579 498.684141,448.121858 L486.921921,550.845528 C486.66225,553.118259 484.738499,554.833818 482.450981,554.833818 L482.450981,554.833818 Z" id="Path" fill="#2F2E41"></path>
                    <circle id="Oval" fill="#A0616A" cx="488.282871" cy="222.180268" r="24.56103"></circle>
                    <path d="M505.126491,395.696788 C488.470633,395.513239 472.211776,390.588265 458.253691,381.498538 L458.014691,381.333538 L458.039351,381.043988 L467.434351,271.627988 C468.103968,263.951676 474.337203,257.947867 482.033221,257.566458 C494.209221,257.006888 510.564221,257.712458 519.319111,264.232968 C532.549821,274.087458 538.926781,288.926818 536.814721,304.945368 C532.434591,338.164118 537.396501,382.974668 537.976581,387.974668 L538.018581,388.335018 L537.688991,388.486388 C527.489152,393.231682 516.376135,395.692467 505.126491,395.696788 L505.126491,395.696788 Z" id="Path" fill="#86888A"></path>
                    <path d="M537.863311,388.160158 C536.463633,388.157689 535.128887,387.569465 534.182651,386.538088 L528.810091,380.676768 C527.62956,379.38121 527.209263,377.564204 527.700961,375.881838 L539.951691,334.417978 L521.311801,295.274418 C520.441344,293.442107 520.228147,291.366007 520.708041,289.395028 C521.573914,285.85334 524.532149,283.211074 528.148753,282.749056 C531.765358,282.287038 535.292841,284.10076 537.021271,287.311028 L562.315951,328.353028 C564.402411,331.734045 564.672251,335.930892 563.035951,339.551268 L542.426091,385.216268 C541.736346,386.749731 540.320367,387.832434 538.659731,388.096148 C538.396363,388.138469 538.130057,388.160158 537.863311,388.160158 L537.863311,388.160158 Z" id="Path" fill="#86888A"></path>
                    <path d="M364.741231,308.955018 C367.129097,310.731079 370.181005,311.35824 373.075744,310.667745 C375.970483,309.97725 378.410697,308.040027 379.739771,305.377348 L415.177771,309.973468 L407.033581,293.284998 L374.629581,291.478998 C369.90476,289.499369 364.446011,291.366443 361.923257,295.824982 C359.400504,300.283521 360.611467,305.924293 364.741221,308.954998 L364.741231,308.955018 Z" id="Path" fill="#A0616A"></path>
                    <path d="M442.852811,318.069338 C442.235706,318.069338 441.619338,318.026724 441.008091,317.941898 L385.257091,310.209478 C383.406285,309.955245 381.808183,308.785511 381.006361,307.098148 C380.878846,306.830536 380.772562,306.553315 380.688491,306.269048 L380.688241,306.269048 C380.252211,304.776387 380.46072,303.169368 381.263241,301.837408 L385.876771,294.188478 C386.886137,292.526033 388.687764,291.508516 390.632631,291.502478 L390.640201,291.502478 L439.236141,291.558138 L475.530091,259.041048 C477.218664,257.531728 479.375029,256.649184 481.637271,256.541538 C485.703288,256.353165 489.465207,258.688968 491.099633,262.416786 C492.734058,266.144605 491.903223,270.494056 489.009831,273.356968 L452.794711,313.635238 C450.260169,316.457183 446.645867,318.069338 442.852811,318.069338 L442.852811,318.069338 Z" id="Path" fill="#86888A"></path>
                    <path d="M491.075081,244.030428 C493.319581,238.835858 495.218871,231.917898 490.913851,228.245288 C488.416731,226.114998 484.820001,226.110598 481.548391,225.845568 C472.331071,225.098888 462.842861,220.857858 458.337621,212.782008 C453.832381,204.706158 456.348391,192.697588 464.847851,189.054008 C470.577081,186.598008 477.145281,188.271098 483.142281,189.971678 L501.148081,195.077608 C506.498141,196.594728 512.115451,198.267858 515.967081,202.279098 C522.109761,208.676388 521.650581,219.490758 516.771671,226.897098 C511.892761,234.303438 504.545321,242.027888 496.134001,244.839908 L491.075081,244.030428 Z" id="Path" fill="#2F2E41"></path>
                    <path d="M739.488141,579.012033 L1.19414063,579.012033 C0.767927889,579.013263 0.373561532,578.78659 0.160097799,578.417684 C-0.0533659332,578.048777 -0.0533659332,577.593908 0.160097799,577.225002 C0.373561532,576.856095 0.767927889,576.629423 1.19414063,576.630653 L739.488141,576.630653 C739.914353,576.629423 740.30872,576.856095 740.522183,577.225002 C740.735647,577.593908 740.735647,578.048777 740.522183,578.417684 C740.30872,578.78659 739.914353,579.013263 739.488141,579.012033 L739.488141,579.012033 Z" id="Path" fill="#3F3D56"></path>
                </g>
            </g>
        </g>
    </g>
</svg>