<svg xmlns="http://www.w3.org/2000/svg"
  xmlns:xlink="http://www.w3.org/1999/xlink" viewBox="0 0 1978.72 1351.78">
  <defs>
    <style>.a42dde86-d0b3-41f5-9fa0-b94d9948379b,.a44c0e48-8dd0-4b0e-9dcd-020f2f852a0c,.a66dd016-8244-4ba4-a40a-cbca1a761466,.a70b1741-45a9-4e38-9b3a-b818a7a0b013,.abb0e6a1-8d06-423d-b381-193ec765a7a4,.acd0f2e0-9894-48da-908e-ba716f0ec067,.af7b8fc3-d8dd-4cdf-b994-00d4ad78b55b,.b2765e6b-09e4-44e6-aab4-4bf112b1d918,.b4527b48-3317-4453-baf5-7af784a3cc6e,.b49705bb-d32b-4ab1-bcb9-2f75acd8d21f,.b6a24dc8-0884-4b54-afa8-06f58d90527d,.b8282d60-4717-4934-b2ac-bd1f7935c525,.b9237016-afc7-43cc-ad9c-0b103d876757,.b9e5f7ff-20d7-4a90-bfda-3698e78583fd,.ba1e5907-e50e-493e-b8aa-097d5c807504,.bb935f2c-a7a4-4297-b53f-bdc2f9ce3537,.bc76f51e-7182-4174-bfeb-cde75e1f51ed,.bc791bc4-660c-444b-8c91-03abd2158c6c,.bf3e9d6d-9fa1-4b42-acc4-48fdb8e16202,.e3682b8e-c5e4-4151-a659-570d355445f5,.eabc8d99-3a4f-4987-af98-b80f6f7b2587,.efacff6e-c36d-4b6c-b81f-4cbb728451fb,.f5d48855-2f25-4eed-b891-64cb42316cda,.f6c30f8c-ba8b-4e24-be77-4a91594452bc,.f7033117-1aae-489d-be01-a0f86ed25ceb,.f8382149-e69b-40f4-9176-61b7ebf19d7a{fill:none;stroke-miterlimit:10;}.a44c0e48-8dd0-4b0e-9dcd-020f2f852a0c,.a66dd016-8244-4ba4-a40a-cbca1a761466,.a70b1741-45a9-4e38-9b3a-b818a7a0b013,.abb0e6a1-8d06-423d-b381-193ec765a7a4,.acd0f2e0-9894-48da-908e-ba716f0ec067,.af7b8fc3-d8dd-4cdf-b994-00d4ad78b55b,.b2765e6b-09e4-44e6-aab4-4bf112b1d918,.b49705bb-d32b-4ab1-bcb9-2f75acd8d21f,.b6a24dc8-0884-4b54-afa8-06f58d90527d,.b8282d60-4717-4934-b2ac-bd1f7935c525,.b9237016-afc7-43cc-ad9c-0b103d876757,.ba1e5907-e50e-493e-b8aa-097d5c807504,.bb935f2c-a7a4-4297-b53f-bdc2f9ce3537,.bc76f51e-7182-4174-bfeb-cde75e1f51ed,.bc791bc4-660c-444b-8c91-03abd2158c6c,.bf3e9d6d-9fa1-4b42-acc4-48fdb8e16202,.eabc8d99-3a4f-4987-af98-b80f6f7b2587,.f5d48855-2f25-4eed-b891-64cb42316cda,.f6c30f8c-ba8b-4e24-be77-4a91594452bc,.f7033117-1aae-489d-be01-a0f86ed25ceb,.f8382149-e69b-40f4-9176-61b7ebf19d7a{stroke:#fff;}.a70b1741-45a9-4e38-9b3a-b818a7a0b013{opacity:0;}.eabc8d99-3a4f-4987-af98-b80f6f7b2587{opacity:0.1;}.bb935f2c-a7a4-4297-b53f-bdc2f9ce3537{opacity:0.2;}.acd0f2e0-9894-48da-908e-ba716f0ec067{opacity:0.16;}.b49705bb-d32b-4ab1-bcb9-2f75acd8d21f{opacity:0.12;}.af7b8fc3-d8dd-4cdf-b994-00d4ad78b55b{opacity:0.08;}.a44c0e48-8dd0-4b0e-9dcd-020f2f852a0c{opacity:0.04;}.bc76f51e-7182-4174-bfeb-cde75e1f51ed{opacity:0.2;}.b8282d60-4717-4934-b2ac-bd1f7935c525{opacity:0.4;}.f5d48855-2f25-4eed-b891-64cb42316cda{opacity:0.32;}.f6c30f8c-ba8b-4e24-be77-4a91594452bc{opacity:0.24;}.abb0e6a1-8d06-423d-b381-193ec765a7a4{opacity:0.16;}.ba1e5907-e50e-493e-b8aa-097d5c807504{opacity:0.3;}.b2765e6b-09e4-44e6-aab4-4bf112b1d918{opacity:0.6;}.a66dd016-8244-4ba4-a40a-cbca1a761466{opacity:0.48;}.f7033117-1aae-489d-be01-a0f86ed25ceb{opacity:0.36;}.bc791bc4-660c-444b-8c91-03abd2158c6c{opacity:0.4;}.f8382149-e69b-40f4-9176-61b7ebf19d7a{opacity:0.8;}.b6a24dc8-0884-4b54-afa8-06f58d90527d{opacity:0.64;}.b4527b48-3317-4453-baf5-7af784a3cc6e,.b9237016-afc7-43cc-ad9c-0b103d876757{opacity:0.5;}.b4527b48-3317-4453-baf5-7af784a3cc6e,.e3682b8e-c5e4-4151-a659-570d355445f5,.efacff6e-c36d-4b6c-b81f-4cbb728451fb{stroke:#c7193c;}.a42dde86-d0b3-41f5-9fa0-b94d9948379b{stroke:url(#bdecefdc-fc82-4837-87c6-4ba879851ecc);}.b9e5f7ff-20d7-4a90-bfda-3698e78583fd{stroke:url(#b0af1fda-4c9b-4833-91fc-13d658cda9df);}.a4f37591-200f-44d6-a580-8427f86efe80{fill:#c7193c;}.e3682b8e-c5e4-4151-a659-570d355445f5{opacity:0.3;}</style>
    <linearGradient id="bdecefdc-fc82-4837-87c6-4ba879851ecc" x1="109.78" y1="504.34" x2="646.38" y2="504.34" gradientUnits="userSpaceOnUse">
      <stop offset="0.49" stop-color="#c7193c" stop-opacity="0"/>
      <stop offset="1" stop-color="#c7193c"/>
    </linearGradient>
    <linearGradient id="b0af1fda-4c9b-4833-91fc-13d658cda9df" x1="126.2" y1="350.94" x2="642.66" y2="350.94" xlink:href="#bdecefdc-fc82-4837-87c6-4ba879851ecc"/>
  </defs>
  <g id="a7549056-abd7-449e-9882-739ad5472356" data-name="圖層 2">
    <g id="f2db7964-e357-4271-a43a-8033927dbc2d" data-name="圖層 6">
      <path class="a70b1741-45a9-4e38-9b3a-b818a7a0b013" d="M406,46.45c-11.69,1.26-17.29-.06-32.85-12.21-6.26,22.91-11.81,31.48-26,46,4.84,29.19,4.85,38.51,2.94,54.42,14.25,4,19.23,3.18,29.11-.38,14.6-14.37,21.56-22.4,33.36-42.28C413.63,78.4,412.82,70.66,406,46.45Z"/>
      <path class="a70b1741-45a9-4e38-9b3a-b818a7a0b013" d="M379.25,134.28c-9.88,3.56-14.86,4.36-29.11.38-16.16,11.94-25.28,16.62-44.86,28.51-1.51,16.68-3.38,23-5.46,37.72,14.62-1.27,19.83-2.72,29.58-5.64,13.17-15.56,20.32-22,35.33-36.32C370.93,149,374.54,145.08,379.25,134.28Z"/>
      <path class="a70b1741-45a9-4e38-9b3a-b818a7a0b013" d="M329.4,195.25c-9.75,2.92-15,4.37-29.58,5.64-16.7,15.94-25.38,27.8-45.1,46.4-.38,18-1.28,26.89-3.62,44.25A181.61,181.61,0,0,0,284,285.88c15.2-19.65,22.34-29.58,36.21-49.56C324.46,219,326,207.88,329.4,195.25Z"/>
      <path class="a70b1741-45a9-4e38-9b3a-b818a7a0b013" d="M284,285.88a181.61,181.61,0,0,1-32.85,5.66A530.14,530.14,0,0,1,202,337.34a419.49,419.49,0,0,1-4,44.2c17.08-.9,23.6-2.17,36-4.57,16.39-19.51,24.2-29.31,39.32-48.8C277.55,311.2,279.81,302.83,284,285.88Z"/>
      <path class="a70b1741-45a9-4e38-9b3a-b818a7a0b013" d="M234,377c-12.38,2.4-18.9,3.67-36,4.57C178.58,400,168.08,408.78,146.4,426c-.61,18.2-1.57,27-2.19,45.47,19.17.41,27.45.11,43.53-.27,15.74-19.84,22.77-30.17,37.43-50.38C227,402.35,229.94,394.08,234,377Z"/>
      <path class="a70b1741-45a9-4e38-9b3a-b818a7a0b013" d="M187.74,471.24c-16.08.38-24.36.68-43.53.27-19.79,18-30.4,26.71-52.37,43.61.87,19,1.49,28.74,3.32,48.74,23,2.67,34.06,4,56,6.89,18.82-18.43,27.12-28.1,42-48.14C189.23,501,188.07,490.7,187.74,471.24Z"/>
      <path class="a70b1741-45a9-4e38-9b3a-b818a7a0b013" d="M151.2,570.75c-22-2.93-33.08-4.22-56-6.89C74,581.2,62.91,589.51,41.81,606.69c2.53,20.19,4.14,30.51,8,51.61,24,3.68,36,5.63,59.89,9.88,19.69-17.51,29.67-26.21,49.5-43.5C155.76,603.1,154.37,592.1,151.2,570.75Z"/>
      <path class="a70b1741-45a9-4e38-9b3a-b818a7a0b013" d="M109.73,668.18c-23.89-4.25-35.88-6.2-59.89-9.88C29.72,675.73,19.78,684.47.55,702.05c5.07,21.44,8,32.4,14.45,54.9,24.34,4.48,36.51,6.82,60.84,11.73,17.86-18.19,27.13-27.19,45.91-45C116.35,701,113.94,689.93,109.73,668.18Z"/>
      <path class="a70b1741-45a9-4e38-9b3a-b818a7a0b013" d="M535,.52a185.1,185.1,0,0,0-56.41,12C465.91,38.88,458.37,51.06,443,72.68c-.66,13.12-2.77,18.63-7.32,31.45,16.15-5.75,28.16-8.23,48.34-6.89,23.93-16.93,34.85-25.66,53.55-44.4C538.79,32.37,539.27,22.2,535,.52Z"/>
      <path class="eabc8d99-3a4f-4987-af98-b80f6f7b2587" d="M484,97.24c-20.18-1.34-32.19,1.14-48.34,6.89-20.69,18.56-30.38,27-47.32,43.37-5.86,12-8.76,18.79-10.31,35.95,12.62-.57,19.12-.32,44,3.35,20.82-17.4,32.37-25.42,55.25-41.69C478.18,125,480.21,115.52,484,97.24Z"/>
      <path class="bb935f2c-a7a4-4297-b53f-bdc2f9ce3537" d="M422,186.8c-24.9-3.67-31.4-3.92-44-3.35-14.17,17.73-19.63,28.48-33.57,47.78a435.77,435.77,0,0,0-6,45.93c13.58.43,20.21,1.29,46.38,6,20.82-16.62,30.3-24.87,49.89-41.75C430,219.49,426.1,207.86,422,186.8Z"/>
      <path class="acd0f2e0-9894-48da-908e-ba716f0ec067" d="M384.82,283.19c-26.17-4.74-32.8-5.6-46.38-6-15.14,18.37-22.62,27.59-37.7,46.4A406,406,0,0,0,295.2,370c14.94,1,22.31,2.23,49.55,8.09,21.76-16.41,31.93-24.36,52.39-40.39C392.25,315.35,390.17,304.54,384.82,283.19Z"/>
      <path class="b49705bb-d32b-4ab1-bcb9-2f75acd8d21f" d="M344.75,378c-27.24-5.86-34.61-7.11-49.55-8.09-16.27,18.4-24.73,27.83-37.89,48.33C258,438.7,260.2,450,267,474c17.56,2.47,26,4.35,52.55,10.33,14.41-20.37,22.14-30.1,40.33-47.86C351.78,411.66,350.23,400.32,344.75,378Z"/>
      <path class="af7b8fc3-d8dd-4cdf-b994-00d4ad78b55b" d="M319.58,484.32c-26.55-6-35-7.86-52.55-10.33-10.72,21.55-15.61,32.65-27.5,53.78,7.25,23.92,12.16,36.6,19.74,61.76,22,5,32.91,8.25,56.61,13.23,14.73-20.67,20.4-31.3,33.39-51.9C337.88,524.29,331.72,510.68,319.58,484.32Z"/>
      <path class="a44c0e48-8dd0-4b0e-9dcd-020f2f852a0c" d="M315.88,602.76c-23.7-5-34.62-8.24-56.61-13.23-14.4,20.18-23.87,29.6-42.93,46.7,4,22.22,6.22,33.5,11.2,56.38,23.53,5.67,35.09,9,59.09,14.26,18.31-17.52,27.49-26.23,45.64-43.61C326.8,640.73,324.85,628.4,315.88,602.76Z"/>
      <path class="a70b1741-45a9-4e38-9b3a-b818a7a0b013" d="M286.63,706.87c-24-5.24-35.56-8.59-59.09-14.26-18.56,17.2-27.92,25.94-46.36,43.68,5.63,23.16,8.71,34.94,15.34,58.94,24.28,5.8,36.38,8.93,60.67,14.76,17.52-18.3,26.47-27.33,44.4-45.23C295.34,741.18,292.34,729.62,286.63,706.87Z"/>
      <path class="a70b1741-45a9-4e38-9b3a-b818a7a0b013" d="M656.65,23.76c-15.92-5.17-24.18-7.81-40.17-12.11-12,20.34-19.1,30-36,48.43.39,22.3,0,33.22.76,55.36,19.22,5.14,30.24,8.39,49.64,14.28,15.72-17.33,22.5-26.36,35-45.09C662.44,60.8,661,48.76,656.65,23.76Z"/>
      <path class="bc76f51e-7182-4174-bfeb-cde75e1f51ed" d="M630.91,129.72c-19.4-5.89-30.42-9.14-49.64-14.28-18.45,17-28.76,25.09-49.32,41.41,1.38,21.72,3.11,32.92,8.79,55.88,23.56,6.13,37.92,10.05,61.94,16.8,16.66-16.58,24.83-24.79,39.37-41.94C637,164.57,634.6,152.94,630.91,129.72Z"/>
      <path class="b8282d60-4717-4934-b2ac-bd1f7935c525" d="M602.68,229.53c-24-6.75-38.38-10.67-61.94-16.8-17.89,16.83-26.28,26.05-45.39,42.92,5.24,23.06,8.44,34.65,14.12,58.4,24.77,7,39.7,11.44,65.12,18.95,18.88-17.08,27.2-25.75,43.74-43.68C613.44,265.33,610,252.85,602.68,229.53Z"/>
      <path class="f5d48855-2f25-4eed-b891-64cb42316cda" d="M574.59,333c-25.42-7.51-40.35-11.92-65.12-18.95-19.09,16.73-29,24.79-49,40.85,5.42,23.45,8.24,35.4,14.13,59.73,25.82,8.15,41.09,13.13,67.74,21.63,19.77-16.42,29.29-24.75,46.88-42.14C584.05,369.85,581.11,357.59,574.59,333Z"/>
      <path class="f6c30f8c-ba8b-4e24-be77-4a91594452bc" d="M542.33,436.26c-26.65-8.5-41.92-13.48-67.74-21.63-19.92,16.16-30.67,23.84-49.08,40.86,8,25.12,12.94,38.22,22.21,64.06,25.56,7.75,39.85,12.24,65.94,20.31,18-17.08,27.57-25.25,45.35-42.09C552.65,473.48,549.2,461.17,542.33,436.26Z"/>
      <path class="abb0e6a1-8d06-423d-b381-193ec765a7a4" d="M513.66,539.86c-26.09-8.07-40.38-12.56-65.94-20.31-16.28,18.11-23.76,27.62-38.11,47.08,10,26.13,15.13,38.83,22.6,63.77,23.28,6,35.35,9.29,58.73,15.69,16.76-18,24.28-26.48,40.92-44.2C525.31,577.39,521.76,565,513.66,539.86Z"/>
      <path class="af7b8fc3-d8dd-4cdf-b994-00d4ad78b55b" d="M490.94,646.09c-23.38-6.4-35.45-9.67-58.73-15.69-15.81,18.91-24.15,28.62-41.86,46,5.83,22.95,8.85,34.56,15.06,58.14,23.84,5.92,35.74,9,59.51,15.22,17.29-17.68,25.86-26.42,42.61-43.8C501,682.35,497.56,670.44,490.94,646.09Z"/>
      <path class="a70b1741-45a9-4e38-9b3a-b818a7a0b013" d="M464.92,749.8c-23.77-6.25-35.67-9.3-59.51-15.22-17.63,17.66-26.55,26.56-44.3,44.56,6.37,24,9.66,36.18,16.34,61.09,24.18,6.35,36.19,9.57,60.3,16.14,17.47-18.63,26.25-27.79,43.59-45.89C474.7,785.84,471.4,773.72,464.92,749.8Z"/>
      <path class="a70b1741-45a9-4e38-9b3a-b818a7a0b013" d="M771.62,65.69c-15.09-6.21-23-9.49-38.1-15.35-11.77,19.63-17.78,29.34-30,48.36,3.39,24.77,5,37.08,8.56,61.61,15.56,6.26,23.62,9.71,39,16.47,11.7-18.33,17.52-27.74,29.12-46.94C776.76,104.2,775.07,91.4,771.62,65.69Z"/>
      <path class="ba1e5907-e50e-493e-b8aa-097d5c807504" d="M751.14,176.78c-15.43-6.76-23.49-10.21-39-16.47-12,18.28-18.12,27.21-30.51,44.8,3.81,23.81,5.78,35.69,10.24,59.13,16.45,6.59,24.87,10.16,41.08,17.42,11.31-16.49,16.92-24.94,28.2-42.46C756.81,214.41,754.87,201.88,751.14,176.78Z"/>
      <path class="b2765e6b-09e4-44e6-aab4-4bf112b1d918" d="M732.9,281.66c-16.21-7.26-24.63-10.83-41.08-17.42-12,16.85-17.93,25.95-31.65,43.75,3.65,24.06,6.3,36,10.48,60.42,17.8,6.54,26.88,10.06,44.48,17.21,12.84-17.54,18.37-26,30.39-43.16C740.84,317.83,737.81,305.4,732.9,281.66Z"/>
      <path class="a66dd016-8244-4ba4-a40a-cbca1a761466" d="M715.13,385.62c-17.6-7.15-26.68-10.67-44.48-17.21-13.64,17.85-20.81,26.69-35.56,44.36,4,24,6,36,10.79,60,19.27,6.58,29.06,10.08,48.19,17.19,13.69-17.22,20.44-25.76,33.41-42.91C722.29,422.58,719.9,410.32,715.13,385.62Z"/>
      <path class="f7033117-1aae-489d-be01-a0f86ed25ceb" d="M694.07,490c-19.13-7.11-28.92-10.61-48.19-17.19-14.53,17.48-21.73,26.23-37.09,43.86,4.82,24,7.26,36.09,12.6,60.43,20.76,6.76,31.25,10.3,51.89,17.49,14.64-17.45,21.81-26.11,35.47-43.46C702.66,526.47,699.49,514.33,694.07,490Z"/>
      <path class="f6c30f8c-ba8b-4e24-be77-4a91594452bc" d="M673.28,594.59c-20.64-7.19-31.13-10.73-51.89-17.49C606,594.67,598,603.48,582.16,621.3c5.71,24.51,9.51,36.35,15.81,60.87,22.12,7,33.25,10.57,55.28,17.88,15.11-17.45,21.75-25.73,36.1-43.38C682.44,631.61,679.29,619.22,673.28,594.59Z"/>
      <path class="b49705bb-d32b-4ab1-bcb9-2f75acd8d21f" d="M653.25,700.05c-22-7.31-33.16-10.9-55.28-17.88-15.81,17.55-23,26.66-38.48,43.34,7.39,23.55,11.22,35.57,19.2,61.31,23.63,8.17,34.87,12.26,58,20.81,14.9-18.81,22.12-28.44,36.3-45.82C664.66,736.88,660.17,724.81,653.25,700.05Z"/>
      <path class="a70b1741-45a9-4e38-9b3a-b818a7a0b013" d="M636.74,807.63c-23.18-8.55-34.42-12.64-58-20.81-15.63,17.56-23.75,26.28-40.34,43.59,7.69,26.05,11.69,39.77,19.7,68.09,25,11.34,36,16.88,60,28.73,16.32-18,24.25-27.67,39.54-47.58C649.24,849.61,645,835,636.74,807.63Z"/>
      <path class="a70b1741-45a9-4e38-9b3a-b818a7a0b013" d="M889.5,109.87c-17.36-6.28-27-9.26-42.5-14.62-11.69,20.28-17.55,30.71-29.21,50.44,3.75,26.09,5.64,39.61,10,64.24,15.84,4.07,24.14,9.62,40.38,16.94,12.28-19.61,18.72-29.85,31.63-50.12C896.18,149.41,894.24,136,889.5,109.87Z"/>
      <path class="bc791bc4-660c-444b-8c91-03abd2158c6c" d="M868.15,226.87c-16.24-7.32-24.54-12.87-40.38-16.94-11.48,20.55-17.09,30-28.21,47.75,4.75,25.49,7.26,38.66,13.37,60.36,16.63,2.71,23.75,11,39.26,19.4,9.55-16.24,14.68-24.94,25.83-43.31C873.83,267.42,872.11,253.79,868.15,226.87Z"/>
      <path class="f8382149-e69b-40f4-9176-61b7ebf19d7a" d="M852.19,337.44c-15.51-8.42-22.63-16.69-39.26-19.4-10.52,19-14.85,27-26.28,43.7,5.5,24.93,9,37,15.23,60.61,17.7,4.69,24.15,10.88,39.37,19.85,10.81-16.93,15.88-24.8,26.44-41.55C862.82,374.79,858.16,362.11,852.19,337.44Z"/>
      <path class="b6a24dc8-0884-4b54-afa8-06f58d90527d" d="M841.25,442.2c-15.22-9-21.67-15.16-39.37-19.85-11.5,18.91-17.4,26.88-29.64,43.65,6,24.76,9.14,36.84,16,61.38,18.87,7.29,23.69,10.74,37.94,20.27,9.36-16,14.33-23.82,24.71-40C847.49,481.21,845.66,468.09,841.25,442.2Z"/>
      <path class="a66dd016-8244-4ba4-a40a-cbca1a761466" d="M826.13,547.65c-14.25-9.53-19.07-13-37.94-20.27-12.05,17.25-17.93,25.31-30.81,42.43,6.82,24.93,10.3,37.4,17.66,62.46,20.34,7.93,27.26,10.9,44.31,19.85,9.3-16.42,13.37-24.19,21-39.74C833.83,586.37,831,573.21,826.13,547.65Z"/>
      <path class="f5d48855-2f25-4eed-b891-64cb42316cda" d="M819.35,652.12c-17.05-9-24-11.92-44.31-19.85-13,17.13-19.73,25.74-33.36,43.21,7.58,25.29,12.21,37.36,20.39,62.45,21.8,7.91,32.68,11,54.19,18.88A343.32,343.32,0,0,0,841.8,715.5,660.35,660.35,0,0,1,819.35,652.12Z"/>
      <path class="acd0f2e0-9894-48da-908e-ba716f0ec067" d="M816.26,756.81c-21.51-7.88-32.39-11-54.19-18.88-13.62,17.17-19.86,25.11-33.34,42.75C737.8,806,742.59,820,752.16,849.09c23.13,7.52,34.7,11.32,57.93,17.24,13.08-21,19.33-30.4,31.55-47.52C831.3,794.19,825.71,781.89,816.26,756.81Z"/>
      <path class="a70b1741-45a9-4e38-9b3a-b818a7a0b013" d="M810.09,866.33c-23.23-5.92-34.8-9.72-57.93-17.24-13.54,21.54-20.57,33.1-35.44,54.94,9.11,31,13.69,47.12,22.1,77.15,24.18,8.26,35.71,8.49,59.79,9.26,15.51-24.41,22.8-36.84,36.65-59.29C825.38,906.56,820.22,893.2,810.09,866.33Z"/>
      <path class="a70b1741-45a9-4e38-9b3a-b818a7a0b013" d="M443.68,72.27c-14.86,8.48-20.14,13.33-30.93,19.65-11.81,19.89-18.77,27.93-33.37,42.31C374.66,145,371,149,364.84,158.87c8.82-4.41,12.85-7.25,24-11.59,17-16.4,26.75-24.86,47.58-43.43C441,91,443,85.41,443.68,72.27Z"/>
      <path class="a70b1741-45a9-4e38-9b3a-b818a7a0b013" d="M388.86,147.28c-11.17,4.34-15.2,7.18-24,11.59-15,14.32-22.16,20.78-35.32,36.34-3.42,12.63-4.94,23.78-9.24,41.08,9.57-2.67,13.82-4,24.68-5.11,14-19.28,19.42-30,33.67-47.76C380.14,166.19,383,159.35,388.86,147.28Z"/>
      <path class="a70b1741-45a9-4e38-9b3a-b818a7a0b013" d="M345,231.18c-10.86,1.13-15.11,2.44-24.68,5.11-13.86,20-21,29.9-36.19,49.56-4.14,16.94-6.41,25.31-10.68,42.29,10.84-2.51,15.75-3.77,27.92-4.62,15.1-18.79,22.59-28,37.78-46.33A431.45,431.45,0,0,1,345,231.18Z"/>
      <path class="a70b1741-45a9-4e38-9b3a-b818a7a0b013" d="M301.33,323.52c-12.17.85-17.08,2.11-27.92,4.62-15.12,19.49-22.93,29.28-39.3,48.8-4,17.11-6.92,25.38-8.78,43.9,12.78-1.69,18.72-2.53,32.66-2.56,13.15-20.49,21.64-29.91,37.95-48.28A398.87,398.87,0,0,1,301.33,323.52Z"/>
      <path class="a70b1741-45a9-4e38-9b3a-b818a7a0b013" d="M258,418.28c-13.94,0-19.88.87-32.66,2.56-14.64,20.21-21.67,30.55-37.39,50.39.35,19.47,1.51,29.79,5.46,51.4,18.76,1.57,27.91,2.46,47.07,5.28,11.84-21.15,16.71-32.25,27.42-53.8C261,450,258.77,438.74,258,418.28Z"/>
      <path class="a70b1741-45a9-4e38-9b3a-b818a7a0b013" d="M240.47,527.91c-19.16-2.82-28.31-3.71-47.07-5.28-14.82,20-23.11,29.72-41.91,48.16,3.17,21.36,4.57,32.36,8,53.94,23.3,4.29,34.89,6.61,57.93,11.75,19-17.1,28.5-26.52,42.89-46.7C252.72,564.58,247.78,551.88,240.47,527.91Z"/>
      <path class="a70b1741-45a9-4e38-9b3a-b818a7a0b013" d="M217.46,636.48c-23-5.14-34.63-7.46-57.93-11.75-19.83,17.3-29.81,26-49.49,43.5,4.21,21.75,6.62,32.85,12,55.5,24.17,4.84,36.23,7.4,60.29,12.83,18.43-17.74,27.79-26.48,46.33-43.68C223.7,670,221.45,658.72,217.46,636.48Z"/>
      <path class="a70b1741-45a9-4e38-9b3a-b818a7a0b013" d="M182.35,736.56c-24.06-5.43-36.12-8-60.29-12.83-18.77,17.82-28,26.82-45.91,45,6.48,23.1,10,34.9,17.7,59.11,24.28,5.44,36.43,8.25,60.76,14,16.75-18.88,25.46-28.16,43.09-46.35C191.07,771.5,188,759.72,182.35,736.56Z"/>
      <path class="a70b1741-45a9-4e38-9b3a-b818a7a0b013" d="M581.35,60.27c-17.25-3.93-26.14-5.67-43.59-7.41-18.7,18.74-29.59,27.47-53.53,44.4-3.73,18.3-5.79,27.75-6.66,47.9,22,3.89,33.5,6.55,55.45,12,20.52-16.33,30.8-24.43,49.19-41.43C581.4,93.53,581.77,82.59,581.35,60.27Z"/>
      <path class="eabc8d99-3a4f-4987-af98-b80f6f7b2587" d="M533,157.12c-21.95-5.41-33.45-8.07-55.45-12-22.88,16.27-34.38,24.29-55.22,41.68,4.1,21.09,8,32.71,12.67,54.67,24.3,5.08,37.17,8.24,61.52,14.44,19.1-16.87,27.49-26.09,45.35-42.92C536.19,190.07,534.45,178.86,533,157.12Z"/>
      <path class="bb935f2c-a7a4-4297-b53f-bdc2f9ce3537" d="M496.54,256c-24.35-6.2-37.22-9.36-61.52-14.44-19.6,16.87-29,25.13-49.86,41.74,5.37,21.36,7.41,32.17,12.31,54.48,25.37,6.28,38.8,10.11,64.23,17.53,20-16.06,29.91-24.13,49-40.86C505,290.63,501.79,279,496.54,256Z"/>
      <path class="acd0f2e0-9894-48da-908e-ba716f0ec067" d="M461.7,355.26c-25.43-7.42-38.86-11.25-64.23-17.53-20.47,16-30.59,24-52.37,40.39,5.51,22.29,7,33.63,15.14,58.43,26.34,7.05,40.17,11.22,66.56,19.33,18.41-17,29.14-24.68,49.05-40.86C470,390.69,467.14,378.73,461.7,355.26Z"/>
      <path class="b49705bb-d32b-4ab1-bcb9-2f75acd8d21f" d="M426.8,455.88c-26.39-8.11-40.22-12.28-66.56-19.33C342.05,454.3,334.35,464,319.92,484.4c12.15,26.36,18.28,40,29.66,66.54,24.38,6,36.86,9.32,61.22,16,14.37-19.43,21.87-28.93,38.17-47C439.73,494.1,434.78,481,426.8,455.88Z"/>
      <path class="af7b8fc3-d8dd-4cdf-b994-00d4ad78b55b" d="M410.8,567c-24.36-6.69-36.84-10-61.22-16-13,20.59-18.66,31.22-33.39,51.88,9,25.64,10.91,38,16.38,60.51,23.62,5.16,35.4,7.83,58.93,13.38,17.7-17.42,26-27.12,41.84-46C425.88,605.76,420.79,593.08,410.8,567Z"/>
      <path class="a44c0e48-8dd0-4b0e-9dcd-020f2f852a0c" d="M391.5,676.71c-23.53-5.55-35.31-8.22-58.93-13.38-18.15,17.38-27.32,26.08-45.63,43.6,5.71,22.76,8.71,34.32,15,57.9,24.19,5.69,36.27,8.61,60.38,14.6,17.75-18,26.67-26.9,44.29-44.56C400.36,711.28,397.34,699.67,391.5,676.71Z"/>
      <path class="a70b1741-45a9-4e38-9b3a-b818a7a0b013" d="M362.28,779.43c-24.11-6-36.19-8.91-60.38-14.6C284,782.73,275,791.76,257.51,810.06c6.77,24.13,10.32,36.45,17.58,61.7,24.12,6.25,36.18,9.43,60.25,15.9,17.06-19.16,25.79-28.57,43.29-47.12C372,815.62,368.66,803.42,362.28,779.43Z"/>
      <path class="a70b1741-45a9-4e38-9b3a-b818a7a0b013" d="M704.29,99c-15.59-5.75-22.23-9.19-38.18-14.28-12.48,18.73-19.25,27.76-35,45.1,3.69,23.22,6.07,34.84,11.14,57.87,19.58,5.87,23.89,11.51,40.07,17.74,12.37-17.58,18.46-26.51,30.48-44.79C709.33,136.07,707.67,123.76,704.29,99Z"/>
      <path class="bc76f51e-7182-4174-bfeb-cde75e1f51ed" d="M682.37,205.41c-16.18-6.23-20.49-11.87-40.07-17.74C627.79,204.82,619.63,213,603,229.61c7.35,23.32,10.75,35.8,15.63,59.79C640,295.45,643.67,302,661,308.3c13.69-17.8,19.64-26.89,31.6-43.74C688.16,241.12,686.18,229.23,682.37,205.41Z"/>
      <path class="b8282d60-4717-4934-b2ac-bd1f7935c525" d="M661,308.3c-17.35-6.27-21-12.85-42.41-18.9-16.52,17.93-24.83,26.61-43.7,43.69,6.52,24.59,9.45,36.85,14.59,61.12,22.72,6.86,27.8,12.55,46.5,18.87,14.73-17.67,21.9-26.51,35.51-44.35C667.33,344.34,664.67,332.37,661,308.3Z"/>
      <path class="f5d48855-2f25-4eed-b891-64cb42316cda" d="M636,413.08c-18.7-6.32-23.78-12-46.5-18.87-17.56,17.4-27.08,25.74-46.83,42.16,6.86,24.91,10.3,37.21,16.65,61.49,24.11,7.44,30.28,12.69,50.45,19.12,15.35-17.62,22.54-26.37,37.05-43.85C642.06,449.05,640,437.07,636,413.08Z"/>
      <path class="f6c30f8c-ba8b-4e24-be77-4a91594452bc" d="M609.77,517c-20.17-6.43-26.34-11.68-50.45-19.12C541.56,514.71,532,522.89,514,540c8.08,25.15,11.62,37.51,18.16,62,23.17,6.77,29.47,12.95,51.05,19.65C599.07,603.81,607,595,622.4,577.43,617.06,553.09,614.6,541,609.77,517Z"/>
      <path class="abb0e6a1-8d06-423d-b381-193ec765a7a4" d="M583.21,621.63c-21.58-6.7-27.88-12.88-51.05-19.65-16.63,17.72-24.16,26.24-40.92,44.19,6.62,24.34,10,36.26,16.58,59.91,23.32,6.28,29.93,12.89,52.79,19.77,15.45-16.68,22.64-25.79,38.44-43.34C592.74,658,588.93,646.15,583.21,621.63Z"/>
      <path class="af7b8fc3-d8dd-4cdf-b994-00d4ad78b55b" d="M560.61,725.85c-22.86-6.88-29.47-13.49-52.79-19.77-16.74,17.38-25.3,26.12-42.59,43.8,6.47,23.92,9.78,36,16.42,60.68,24,6.55,33.58,11.48,57.88,20.27,16.59-17.3,24.69-26,40.32-43.61C571.85,761.44,568,749.4,560.61,725.85Z"/>
      <path class="a70b1741-45a9-4e38-9b3a-b818a7a0b013" d="M539.53,830.83c-24.3-8.79-33.9-13.72-57.88-20.27-17.34,18.1-26.12,27.26-43.59,45.9,6.62,25.22,10,38,16.54,64.25,24,6.85,36.25,9.94,61.32,20.4,17.57-17,26.35-25.08,43.35-42.06C551.25,870.69,547.24,856.93,539.53,830.83Z"/>
      <path class="a70b1741-45a9-4e38-9b3a-b818a7a0b013" d="M818.54,146c-15.4-6.33-23-9.64-38.08-16.08-11.6,19.2-17.42,28.62-29.12,47,3.73,25.1,5.67,37.63,10,62.42,15.57,7.27,23.18,11.07,39,18.77,11.11-17.78,16.71-27.29,28.21-47.94C824.18,185.61,822.29,172.09,818.54,146Z"/>
      <path class="ba1e5907-e50e-493e-b8aa-097d5c807504" d="M800.34,258.06c-15.86-7.7-23.47-11.5-39-18.77-11.27,17.53-16.89,26-28.19,42.46,4.91,23.75,7.95,36.18,12.63,60.81,16.7,7.46,24.81,11.39,41.73,19.58,11.42-16.72,15.75-24.82,26.27-44C807.6,296.68,805.09,283.53,800.34,258.06Z"/>
      <path class="b2765e6b-09e4-44e6-aab4-4bf112b1d918" d="M787.47,362.14c-16.92-8.19-25-12.12-41.73-19.58-12,17.16-17.55,25.61-30.38,43.15,4.77,24.7,7.16,37,12.36,61.48,18.17,7.36,27.17,11.22,45.41,19.2,12.22-16.78,18.11-24.76,29.61-43.82C796.51,399.06,793,387.05,787.47,362.14Z"/>
      <path class="a66dd016-8244-4ba4-a40a-cbca1a761466" d="M773.13,466.39c-18.24-8-27.24-11.84-45.41-19.2-13,17.14-19.72,25.69-33.41,42.9,5.43,24.33,8.6,36.47,14.69,61.14,19.74,7.32,29.66,11.14,49.34,19,12.86-17.11,18.73-25.16,30.77-42.46C782.29,503.19,779.14,491.14,773.13,466.39Z"/>
      <path class="f7033117-1aae-489d-be01-a0f86ed25ceb" d="M758.34,570.19c-19.68-7.82-29.6-11.64-49.34-19-13.65,17.34-20.82,26-35.45,43.45,6,24.64,9.16,37,16.07,62.09,21.25,7.42,31.9,11.27,53.1,19.09,13.61-17.47,20.35-26.07,33.31-43.2C768.66,607.59,765.18,595.13,758.34,570.19Z"/>
      <path class="f6c30f8c-ba8b-4e24-be77-4a91594452bc" d="M742.72,675.86c-21.2-7.82-31.85-11.67-53.1-19.09-14.35,17.64-21,25.92-36.09,43.38,6.92,24.76,11.42,36.82,19.8,61.75,22.57,7.54,33.94,11.45,56.5,19.16,13.47-17.64,19.7-25.58,33.3-42.75C754.94,713.22,750.3,701.16,742.72,675.86Z"/>
      <path class="b49705bb-d32b-4ab1-bcb9-2f75acd8d21f" d="M729.83,781.06c-22.56-7.71-33.93-11.62-56.5-19.16-14.18,17.39-21.39,27-36.3,45.84,8.28,27.37,12.51,42,20.82,72,23.6,10.13,36.08,15.57,60,24.7,14.85-21.88,21.87-33.46,35.4-55C743.7,820.41,738.92,806.41,729.83,781.06Z"/>
      <path class="a70b1741-45a9-4e38-9b3a-b818a7a0b013" d="M717.89,904.48c-24-9.13-36.44-14.57-60-24.7-15.29,19.92-23.21,29.56-39.53,47.6,7.66,29.88,11.43,45.29,18.13,74.29,23.95,12.46,37.19,19.3,61.88,29.59,17.58-17.69,25.92-27.85,41.67-49.68C731.59,951.59,727,935.49,717.89,904.48Z"/>
      <path class="a70b1741-45a9-4e38-9b3a-b818a7a0b013" d="M941.54,196.28c-16.43-8.41-25-12.37-41.55-19.44-12.91,20.27-19.34,30.52-31.63,50.12,3.95,26.93,5.67,40.56,9.85,67.28,15.33,8.35,23.21,12.78,38.38,22,11.46-18.37,17.85-28.17,30.95-47.94C945.47,239.28,944.51,224.68,941.54,196.28Z"/>
      <path class="bc791bc4-660c-444b-8c91-03abd2158c6c" d="M916.59,316.2c-15.17-9.18-23.05-13.61-38.38-22-11.14,18.37-16.27,27.07-25.82,43.31,6,24.67,10.63,37.35,15.5,63.22,15.42,9.12,23,13.83,38,23.37,11-17,14.29-25.88,22.75-41.57C922.27,357.38,920.31,343.76,916.59,316.2Z"/>
      <path class="f8382149-e69b-40f4-9176-61b7ebf19d7a" d="M905.93,424.14c-15-9.54-22.62-14.25-38-23.37-10.56,16.75-15.63,24.62-26.45,41.54,4.41,25.9,6.23,39,9.58,65.43,13.72,10.18,19.83,15.41,32.58,25.74,10.94-16.62,17.21-25.18,29.76-42.57C911.69,463.58,909.94,450.65,905.93,424.14Z"/>
      <path class="b6a24dc8-0884-4b54-afa8-06f58d90527d" d="M883.6,533.48c-12.75-10.33-18.86-15.56-32.58-25.74-10.38,16.23-15.35,24-24.71,40,4.88,25.57,7.7,38.73,14.23,64.74,14.14,10.47,20.14,15.83,33,26.28,5-15,7.5-22.37,16.35-38.35C886,574,885.41,560.43,883.6,533.48Z"/>
      <path class="a66dd016-8244-4ba4-a40a-cbca1a761466" d="M873.58,638.79c-12.9-10.45-18.9-15.81-33-26.28-7.62,15.55-11.69,23.31-21,39.72,7.75,25.38,12.33,38.14,22.47,63.39,19,8.93,28,13.5,46.32,22.53,5.68-15.46,7.47-22.77,10.88-37.31C886.68,676.58,881.47,664.23,873.58,638.79Z"/>
      <path class="f5d48855-2f25-4eed-b891-64cb42316cda" d="M888.36,738.15c-18.37-9-27.35-13.6-46.32-22.53a343.39,343.39,0,0,1-25.5,41.29c9.45,25.08,15.05,37.38,25.39,62,22.57,7.51,33.85,11.28,56.36,19,11.59-15.55,16.25-23.78,24.09-39.7C909.1,773.87,901,762.65,888.36,738.15Z"/>
      <path class="acd0f2e0-9894-48da-908e-ba716f0ec067" d="M898.29,837.87c-22.51-7.68-33.79-11.45-56.36-19-12.21,17.11-18.47,26.54-31.55,47.49,10.14,26.86,15.31,40.21,25.18,64.78,23.72,2.13,35.41,2.64,58.86,4.52,13.34-19,19.57-27.27,31.5-42.41C914.85,872.36,909.21,861.09,898.29,837.87Z"/>
      <path class="a70b1741-45a9-4e38-9b3a-b818a7a0b013" d="M894.42,935.7c-23.45-1.88-35.14-2.39-58.86-4.52-13.84,22.44-21.13,34.86-36.65,59.27,8.57,25.17,12.61,36.54,19.48,58.13,24.25-2.65,36-5.11,59.81-8.42,17.16-23.68,25.13-35,40-54.57C909.44,966.17,904.53,956.64,894.42,935.7Z"/>
      <path class="a70b1741-45a9-4e38-9b3a-b818a7a0b013" d="M1037.62,278.14c-8.72-14.25-13.16-20.94-24.73-33.18-11.66,18.28-17.1,27.58-29.73,47.09,1,29.62-.82,46,1.82,74.57a393,393,0,0,1,31.65,28.1c8.66-16.43,13.22-24.85,21.61-41C1036.81,324.3,1037.09,308.87,1037.62,278.14Z"/>
      <path class="b9237016-afc7-43cc-ad9c-0b103d876757" d="M1016.63,394.72A393,393,0,0,0,985,366.62c-10.69,17.82-12.69,24.6-20.19,39.77,7,25,8.86,41.19,12.82,68,14.59,10,22.23,15.24,36.64,25.45,9.81-16.29,10.93-24.58,16.46-38.7C1022.8,436.16,1020.09,422.82,1016.63,394.72Z"/>
      <path class="bf3e9d6d-9fa1-4b42-acc4-48fdb8e16202" d="M1014.25,499.83c-14.41-10.21-22-15.48-36.64-25.45C967,491.21,963.83,497.44,950,515.18c1.89,27.42-.43,42.77,2.22,69.09,15.49,8.89,24.27,13.89,39.6,22.92,12.1-16.82,19.12-25.34,31.08-41.88C1020.26,539.13,1018.84,526.34,1014.25,499.83Z"/>
      <path class="f8382149-e69b-40f4-9176-61b7ebf19d7a" d="M991.78,607.19c-15.33-9-24.11-14-39.6-22.92-12.83,17.44-16.78,24.85-27,41.21,6.15,26,9.19,39.24,21.94,62.9,17.06,8.1,27,12.84,43.88,21,3.22-15.28,5.6-23.18,13.5-39.31C997,645.62,995,633,991.78,607.19Z"/>
      <path class="b2765e6b-09e4-44e6-aab4-4bf112b1d918" d="M991,709.39c-16.93-8.17-26.82-12.91-43.88-21-4.3,15.57-3.24,21.54-5.78,35.82,16,23.4,22.92,36.13,40.61,59.1,19.74,8,30.27,12.4,50,20.5.88-14.73.24-22.17-.27-36.92C1013.28,744.14,1004.74,732.84,991,709.39Z"/>
      <path class="b8282d60-4717-4934-b2ac-bd1f7935c525" d="M1031.92,803.8c-19.68-8.1-30.21-12.48-50-20.5-2.06,15-.28,19.82-6.91,35.44,15.1,23.91,19.62,38.62,31.77,60.66,22.08,7.88,33.13,12,55.16,20.11,9.28-14,12.24-22.8,16.33-38.63C1061.56,837,1050.71,826.63,1031.92,803.8Z"/>
      <path class="bb935f2c-a7a4-4297-b53f-bdc2f9ce3537" d="M1062,899.51c-22-8.14-33.08-12.23-55.16-20.11-9.93,14.17-13,18.29-24.4,30.38,11.49,19.93,15.75,30.12,26.61,49.75,23,8.39,34.42,13.3,57.1,23.39,11.8-11.35,17.21-17,27.32-29.4C1081.2,932,1074.75,921.68,1062,899.51Z"/>
      <path class="a70b1741-45a9-4e38-9b3a-b818a7a0b013" d="M1066.14,982.92c-22.68-10.09-34.06-15-57.1-23.39-12.18,11.25-17.88,16-32.55,31.22,8.92,20.27,12.69,31.89,19.37,58,23.45,8.7,34.9,14.32,57.67,26.16,16.35-15.6,23.74-22,37.46-34.73C1082.1,1015.62,1077,1004.37,1066.14,982.92Z"/>
      <path class="a70b1741-45a9-4e38-9b3a-b818a7a0b013" d="M1103.61,384.26c-11.41-12.09-16.61-19.1-25.39-33.22-6.49,14.26-9.55,21.35-16,35.93,3.39,28,6,41.43,13,67.06,12,11.81,18.76,17,31.18,28.88,3.91-13,6.09-19.59,11.23-33.32C1110.64,424.05,1108,411,1103.61,384.26Z"/>
      <path class="bc791bc4-660c-444b-8c91-03abd2158c6c" d="M1106.39,482.91C1094,471,1087.16,465.84,1075.21,454c-4.89,13.82-7.35,20.8-11.54,34.13,9.19,24.39,15.47,37.53,21.14,63.16,14.25,10.55,21.09,15.32,35.4,26.58,8-14.32,8.73-21.75,11.46-34.29C1119.84,520,1114.91,507.8,1106.39,482.91Z"/>
      <path class="f8382149-e69b-40f4-9176-61b7ebf19d7a" d="M1120.21,577.9c-14.31-11.26-21.15-16-35.4-26.58-8.58,15.07-14.53,22.45-26,38.15,3.2,25.62,3.61,38.33,8,63.09,15.59,9.47,20,13.45,38.24,24.13,11.92-14.16,19.79-21.53,31.1-35.9C1128.35,616,1126.56,603.47,1120.21,577.9Z"/>
      <path class="b6a24dc8-0884-4b54-afa8-06f58d90527d" d="M1105,676.69c-18.2-10.68-22.65-14.66-38.24-24.13-11.24,15.29-16.56,23-24,38.52,8.43,24.14,14.7,35.94,31.11,59.25,17.42,8.64,21.6,12.33,42.42,22.28,1.52-13.77,4.52-20.73,14.55-35C1116,713.68,1111.23,701.52,1105,676.69Z"/>
      <path class="a66dd016-8244-4ba4-a40a-cbca1a761466" d="M1116.29,772.61c-20.82-10-25-13.64-42.42-22.28-1,14.68.09,22,1.93,36.6,20,22.85,31.54,34.69,53.08,57.39,19.86,8.33,28.09,12.69,48.82,21.76-2.42-13.84-4.44-21.41-4.41-35.38C1148.38,807.78,1135.6,796.32,1116.29,772.61Z"/>
      <path class="f5d48855-2f25-4eed-b891-64cb42316cda" d="M1177.7,866.08c-20.73-9.07-29-13.43-48.82-21.76,1.69,14.37,3.71,20.7.81,36.55,18.07,23.94,27.52,36.47,41.33,59.4,22,8.12,32.75,13.26,54.65,21.1,7.26-14.57,7-22.87,8.63-38.16C1214.26,899.39,1200.87,889,1177.7,866.08Z"/>
      <path class="acd0f2e0-9894-48da-908e-ba716f0ec067" d="M1225.67,961.37c-21.9-7.84-32.7-13-54.65-21.1a288,288,0,0,1-22.5,35.75c12.57,22.65,18.63,34.16,29.75,58.09,22.69,9.67,34.5,14.6,57.65,22.58,11.38-15.71,16.39-23.28,25.24-38.42C1247.62,994.79,1240.32,983.79,1225.67,961.37Z"/>
      <path class="a70b1741-45a9-4e38-9b3a-b818a7a0b013" d="M1235.92,1056.69c-23.15-8-35-12.91-57.65-22.58-11.56,14.26-17.85,21.09-31.57,35.08,8.94,25.44,12.86,38.89,19.37,66.29,22.89,11,35.47,15.71,59.28,23.55,16.53-17.38,23.8-25,37.12-40.46C1253.08,1092.76,1247.68,1080.38,1235.92,1056.69Z"/>
      <path class="a70b1741-45a9-4e38-9b3a-b818a7a0b013" d="M1190.65,472c-12-11.81-17.64-17.47-29.34-29.09a317.3,317.3,0,0,0-13.18,35.21c8.1,25.07,13,37.24,24.73,60.66,13.69,10.75,20.15,15.93,34.16,27.11a201.38,201.38,0,0,1,3.66-30.89C1200.74,510.54,1196.76,497.94,1190.65,472Z"/>
      <path class="ba1e5907-e50e-493e-b8aa-097d5c807504" d="M1207,565.88c-14-11.18-20.47-16.36-34.16-27.11-1.92,12.66-2.56,18.81-3.84,31.09,14,22.46,21.47,34.83,34,58.47,17.18,9.27,25.58,13.76,42.72,23.61,2.14-13.39,2.3-20.39-.31-30.74C1228,600,1220.34,588.94,1207,565.88Z"/>
      <path class="b2765e6b-09e4-44e6-aab4-4bf112b1d918" d="M1245.78,651.94c-17.14-9.85-25.54-14.34-42.72-23.61-4.6,14.37-8.32,21.65-16.5,36.32,11.73,23.34,17.47,35,33,57.3,23.72,7.71,36.18,11.61,58.88,19.91,4.4-13.58,8.38-19.87,9.66-32.34C1269.48,686.89,1260.79,675.18,1245.78,651.94Z"/>
      <path class="a66dd016-8244-4ba4-a40a-cbca1a761466" d="M1278.41,741.86c-22.7-8.3-35.16-12.2-58.88-19.91-8.21,14.62-13.16,22-21.34,37.14,17.74,22.25,29,32.8,51.06,54.49,27.44,6.65,42.21,10.16,68.11,17.33,5-14.91,10.66-20.82,14.65-33.51C1309.62,775.15,1296.7,763.74,1278.41,741.86Z"/>
      <path class="f7033117-1aae-489d-be01-a0f86ed25ceb" d="M1317.36,830.91c-25.9-7.17-40.67-10.68-68.11-17.33-5.39,15-7.61,22.56-10.22,37.43,23,22,34.66,33.47,55.34,55.89,23.82,7.43,36.17,11.3,59.33,18.91,5-15.4,9.71-22.91,16.7-37.44C1351.32,865.09,1338.26,853,1317.36,830.91Z"/>
      <path class="f6c30f8c-ba8b-4e24-be77-4a91594452bc" d="M1353.7,925.81c-23.16-7.61-35.51-11.48-59.33-18.91-3.13,15-2.53,21.45-5.62,36.76,18.77,23.31,29.09,34.52,45,57.38,21.74,8,32.5,12.15,54.41,20,5.36-15.46,5.1-22.13,10.74-37.32C1382.55,960.3,1371.92,948.82,1353.7,925.81Z"/>
      <path class="b49705bb-d32b-4ab1-bcb9-2f75acd8d21f" d="M1388.2,1021c-21.91-7.83-32.67-12-54.41-20a315.09,315.09,0,0,1-18,39c13.59,25.12,19.82,38.56,30.92,66.6,21.86,11,32.47,16.6,54.89,26.89a392.59,392.59,0,0,0,24.81-48.79C1412.42,1057.28,1404.76,1044.31,1388.2,1021Z"/>
      <path class="a70b1741-45a9-4e38-9b3a-b818a7a0b013" d="M1401.65,1133.52c-22.42-10.29-33-15.87-54.89-26.89a321.07,321.07,0,0,1-29.56,40.67c8.83,28,12.53,42.61,18.83,70.6,21.4,13.75,31.57,20.63,53.92,33.12,15.63-15.13,23-23.88,36.84-43.1C1417.76,1178.48,1412.83,1163,1401.65,1133.52Z"/>
      <path class="a70b1741-45a9-4e38-9b3a-b818a7a0b013" d="M1280.36,557c-12.21-10.8-18.16-16.3-30.4-27.65-5.33,14.1-7.23,20.66-9.11,33.71,10.52,24,17,35.82,31.18,58.57,12.56,11.33,18.33,16.8,30.63,28-1.65-11.69-1.55-17.82.27-31C1292.08,594.63,1287.34,582.17,1280.36,557Z"/>
      <path class="bc76f51e-7182-4174-bfeb-cde75e1f51ed" d="M1302.66,649.66c-12.3-11.23-18.07-16.7-30.63-28,1.58,11.44,2.89,16.56,7.55,26.62,17.39,20.9,25.12,33.57,41.27,56.9,13,11.43,18.69,17,31.23,28.62-4-11.45-6.41-17.08-10.78-27.76C1324.55,683.9,1316.62,672.59,1302.66,649.66Z"/>
      <path class="b8282d60-4717-4934-b2ac-bd1f7935c525" d="M1352.08,733.77c-12.54-11.67-18.23-17.19-31.23-28.62,3.17,11.91,4.47,17.75,8.16,29.83,17.48,22.21,26.44,34,44.69,56.19,14.26,10.63,20.35,15.78,34,26.77-4.9-11-6.84-16.53-11.94-27.42C1377.35,768.52,1368.64,756.88,1352.08,733.77Z"/>
      <path class="f5d48855-2f25-4eed-b891-64cb42316cda" d="M1407.71,817.94c-13.66-11-19.75-16.14-34-26.77a244.76,244.76,0,0,1,8.36,29.74c18,21.64,27.68,32.73,44.52,55.09,16,9.65,22.94,14.32,38.35,24.35-2.63-11.79-5-17.12-9.74-28.17C1435.91,850.75,1426.28,839.9,1407.71,817.94Z"/>
      <path class="f6c30f8c-ba8b-4e24-be77-4a91594452bc" d="M1464.93,900.35c-15.41-10-22.33-14.7-38.35-24.35.83,12.7-.18,19.25-3,33.64,14.78,22.57,22.27,34.22,38.08,56.77,19.49,8.06,28.68,11.93,47.95,20,1.51-13.61,2-20,.83-32.28C1491.87,933,1483,922.17,1464.93,900.35Z"/>
      <path class="abb0e6a1-8d06-423d-b381-193ec765a7a4" d="M1509.58,986.44c-19.27-8.1-28.46-12-47.95-20-3.68,14.5-5.34,21.49-10.19,36.66,16.24,22.42,27.67,32,46,54.67,22.13,7,33.16,10.19,55.41,16.78,2.94-15.2,2.45-21.17,4.13-35.13C1537.46,1018.41,1527.33,1008.17,1509.58,986.44Z"/>
      <path class="af7b8fc3-d8dd-4cdf-b994-00d4ad78b55b" d="M1552.8,1074.52c-22.25-6.59-33.28-9.83-55.41-16.78-3.86,15.75-6.91,25-14.94,45.19,14.87,26.89,21.79,41,34.89,67.77,24.29,4.44,36.75,5.92,61.21,9,10.13-21.08,14.15-31,20.08-48.89C1581.24,1108,1572.11,1096.3,1552.8,1074.52Z"/>
      <path class="a70b1741-45a9-4e38-9b3a-b818a7a0b013" d="M1578.55,1179.67c-24.46-3.05-36.92-4.53-61.21-9-11.19,22.32-17.85,34.24-32.24,56.27,10.22,26.85,15,39.39,23.65,61.84,25.62,2.35,39.09,2.27,65,2.21,17-21,24.76-32.22,38-53.39C1599.65,1215.45,1592.89,1203.81,1578.55,1179.67Z"/>
      <path class="a70b1741-45a9-4e38-9b3a-b818a7a0b013" d="M1379.93,629.49c-14.19-8-21.52-12.78-35.13-22-5.88,15.13-7.49,22.64-9.7,36.49,11.35,23.57,17.57,34.52,32,56.85a373,373,0,0,0,36.88,22.67c-.65-13.89-.46-21.08,1.77-36.21C1393.31,664.85,1388.12,653.33,1379.93,629.49Z"/>
      <path class="eabc8d99-3a4f-4987-af98-b80f6f7b2587" d="M1403.93,723.5a373,373,0,0,1-36.88-22.67c.82,13.13,2.57,20.07,6,31.92,17.1,22,25.82,32.13,44.18,53.48A290.83,290.83,0,0,0,1457,809.06c-4.13-12.43-6.74-18.38-9.91-31.95C1428.14,756.11,1419.46,745.43,1403.93,723.5Z"/>
      <path class="bb935f2c-a7a4-4297-b53f-bdc2f9ce3537" d="M1457,809.06a290.83,290.83,0,0,1-39.72-22.83c4.67,12.07,7.49,18.86,12.48,30.14,19.57,21,28.23,30.93,48.62,50.84,14.87,8.44,25.39,13.35,43.38,20.84-4.72-11.53-6.56-17.5-11.54-29.38C1488,839.6,1477.4,829.47,1457,809.06Z"/>
      <path class="acd0f2e0-9894-48da-908e-ba716f0ec067" d="M1521.75,888.05c-18-7.49-28.51-12.4-43.38-20.84,5.5,11.46,8.8,17.51,13.66,28.9,20.63,20.3,30.48,29.9,51.71,49.18,16.46,7.63,27.79,12,47.62,19-4.06-11.73-6.12-17.67-11.1-29.43C1556.31,916.35,1544.45,907.06,1521.75,888.05Z"/>
      <path class="b49705bb-d32b-4ab1-bcb9-2f75acd8d21f" d="M1591.36,964.26c-19.83-7-31.16-11.34-47.62-19,4.78,11.66,7.36,17.65,10,29.57,20.85,19.73,30.6,29,52.31,48.49,19.55,6.8,31.44,11.12,53,17.47-2.22-12.57-3.29-18.57-7-30.56C1627.54,992.06,1615.23,983,1591.36,964.26Z"/>
      <path class="af7b8fc3-d8dd-4cdf-b994-00d4ad78b55b" d="M1659,1040.82c-21.51-6.35-33.4-10.67-53-17.47,2.16,12.68,3.51,19.19,3.22,32.77,21.16,20.08,32.61,28.88,53.55,49.49,21.87,6.52,34.22,10.77,57.17,16.73.76-14.33.06-20.66-1.32-34.22C1695.06,1068.87,1682.79,1059.74,1659,1040.82Z"/>
      <path class="a44c0e48-8dd0-4b0e-9dcd-020f2f852a0c" d="M1720,1122.34c-23-6-35.3-10.21-57.17-16.73-.93,14.1-1.91,21.57-6.71,37.65,18.5,21.39,27.11,31.87,43.42,53.56,24.08,5.19,36.31,9.42,60.38,15.31,7.25-15.77,9.84-23.45,13.26-38.57C1753,1152.83,1742.23,1142.64,1720,1122.34Z"/>
      <path class="a70b1741-45a9-4e38-9b3a-b818a7a0b013" d="M1760,1212.13c-24.07-5.89-36.3-10.12-60.38-15.31-7.76,16.51-12.75,25.63-25.24,44.67,12.73,21.54,18.41,32,27.27,54.82,25.45,4.29,37.17,8.47,61.52,14.38,16.16-17.87,23-26.5,34.27-43.36C1784.42,1244.79,1776.76,1233.79,1760,1212.13Z"/>
      <path class="a70b1741-45a9-4e38-9b3a-b818a7a0b013" d="M1491.74,671.18a272.38,272.38,0,0,1-39-9.68c-6.4,17.65-8.31,26-10.47,42,13,21.81,20.56,32.39,37.72,53.15a345.75,345.75,0,0,0,40.48,11.15c-1.51-16.59-1.56-25.25.66-43.55C1506.91,703.55,1501,693,1491.74,671.18Z"/>
      <path class="a70b1741-45a9-4e38-9b3a-b818a7a0b013" d="M1520.52,767.8A345.75,345.75,0,0,1,1480,756.65c1.29,15.51,2.75,22.89,6.45,37.19,20,20.44,30.81,29.76,53.2,48.79a449.19,449.19,0,0,0,43.45,12c-5.64-14.21-7.78-20.83-12.34-37.1C1548.68,798,1538.56,788.05,1520.52,767.8Z"/>
      <path class="a70b1741-45a9-4e38-9b3a-b818a7a0b013" d="M1583.14,854.59a449.19,449.19,0,0,1-43.45-12c5.28,13.55,7.92,20,13.4,32.27,23.05,18.24,34.62,27.2,59.2,44.65,18.52,5.11,27.85,7.34,46.7,11.06-6.56-12.87-9.83-19.4-15.9-32.66C1618.55,881.52,1606.45,872.88,1583.14,854.59Z"/>
      <path class="a70b1741-45a9-4e38-9b3a-b818a7a0b013" d="M1659,930.61c-18.85-3.72-28.18-6-46.7-11.06,6.06,12.33,9.2,18.37,14.94,30.49,24.9,17.7,37.48,26.43,63.17,43.53,20.07,4.74,30.14,6.8,50.34,10.18-6.31-12.89-9.74-19.39-16.7-32.53C1697.5,955.3,1684.4,947.19,1659,930.61Z"/>
      <path class="a70b1741-45a9-4e38-9b3a-b818a7a0b013" d="M1740.74,1003.75c-20.2-3.38-30.27-5.44-50.34-10.18,5.6,12.35,8.27,18.44,12.75,30.74,25.27,17.46,37.75,26.11,62.94,43.45,21.58,4.4,32.38,6.32,54,9.5a283.39,283.39,0,0,0-12.63-33.29C1780.69,1028,1767.24,1020,1740.74,1003.75Z"/>
      <path class="a70b1741-45a9-4e38-9b3a-b818a7a0b013" d="M1820,1077.26c-21.57-3.18-32.37-5.1-54-9.5,3.6,12.94,5.33,19.39,7.51,33.29,24.44,18.67,36.61,27.43,60.24,47,22.87,4.3,34.28,6.22,57,9.46-1.58-16.07-2.55-23-6.26-38C1858.77,1102,1845.85,1093.78,1820,1077.26Z"/>
      <path class="a70b1741-45a9-4e38-9b3a-b818a7a0b013" d="M1890.85,1157.51c-22.73-3.24-34.14-5.16-57-9.46.77,15.27.33,22.92-2.52,38.47,20.69,20.46,30.44,30.83,47.9,52.14,24,4.74,35.94,7,59.82,11,6.11-17.25,8-25.76,9.58-42.82C1926.9,1186.65,1915.18,1176.84,1890.85,1157.51Z"/>
      <path class="a70b1741-45a9-4e38-9b3a-b818a7a0b013" d="M1939,1249.66c-23.88-4-35.85-6.26-59.82-11-6.51,16.56-10.85,24.95-22,42.15,13.09,22.44,18.57,33.93,26.58,57.67,24.26,5.28,36.38,7.83,60.6,12.75,16.28-19,23-28.31,33.75-46.75C1964.81,1281.85,1956.82,1270.94,1939,1249.66Z"/>
      <path class="a70b1741-45a9-4e38-9b3a-b818a7a0b013" d="M1009.76,171.66C996.49,161.19,989,156.39,973,147.43c-11.95,18.39-18.84,28.44-32.3,48.44,3,28.39,4,43,6.06,71.94A394.86,394.86,0,0,1,983,291.92c12.63-19.51,18.08-28.83,29.75-47.12C1012.82,214.29,1012.77,199.33,1009.76,171.66Z"/>
      <path class="b9237016-afc7-43cc-ad9c-0b103d876757" d="M983,291.92a394.86,394.86,0,0,0-36.19-24.11c-13.1,19.78-19.49,29.57-30.95,47.94,3.74,27.55,5.7,41.17,12.11,66.36,14.87,9.49,22.18,14.34,36.65,24.15,7.5-15.17,9.5-21.95,20.2-39.78C982.17,337.92,984,321.54,983,291.92Z"/>
      <path class="bf3e9d6d-9fa1-4b42-acc4-48fdb8e16202" d="M964.61,406.26c-14.47-9.81-21.78-14.66-36.65-24.15-8.48,15.7-11.76,24.59-22.76,41.56,4,26.51,5.79,39.43,7.46,66.76,14.2,9.94,21.37,14.95,37.1,24.63,13.86-17.74,17-24,27.66-40.81C973.47,447.45,971.57,431.24,964.61,406.26Z"/>
      <path class="f8382149-e69b-40f4-9176-61b7ebf19d7a" d="M949.76,515.06c-15.73-9.68-22.9-14.69-37.1-24.63C900.15,507.81,893.89,516.36,883,533c1.83,26.95,2.43,40.48,6.33,67C902,610.45,908.68,615.68,925,625.35c10.19-16.35,14.16-23.75,27-41.19C949.33,557.83,951.64,542.48,949.76,515.06Z"/>
      <path class="b2765e6b-09e4-44e6-aab4-4bf112b1d918" d="M925,625.35c-16.31-9.67-23-14.9-35.68-25.42-8.82,16-11.3,23.34-16.36,38.35,7.84,25.45,13,37.81,25.51,62.09,15.93,9.74,24.11,14.58,42.66,23.71,2.54-14.27,1.49-20.24,5.81-35.8C934.18,664.61,931.12,651.38,925,625.35Z"/>
      <path class="b8282d60-4717-4934-b2ac-bd1f7935c525" d="M941.12,724.08c-18.55-9.13-26.73-14-42.66-23.71-3.44,14.55-5.26,21.87-11,37.34,12.63,24.51,20.65,35.75,33.89,60,21.11,8.38,31.7,12.58,53.43,20.87,6.63-15.62,4.87-20.48,6.93-35.43C964,760.23,957.13,747.48,941.12,724.08Z"/>
      <path class="bb935f2c-a7a4-4297-b53f-bdc2f9ce3537" d="M974.78,818.63c-21.73-8.29-32.32-12.49-53.43-20.87-7.87,15.93-12.56,24.16-24.16,39.73C908.1,860.74,913.74,872,924.8,893c23,5.76,34.46,8.85,57.33,16.68,11.39-12.1,14.48-16.21,24.42-30.38C994.4,857.25,989.88,842.55,974.78,818.63Z"/>
      <path class="a70b1741-45a9-4e38-9b3a-b818a7a0b013" d="M982.13,909.68c-22.87-7.83-34.34-10.92-57.33-16.68-11.94,15.22-18.18,23.49-31.52,42.61,10.11,21,15,30.56,23.79,50,23.69-.26,35.53.11,59.12,5.08,14.66-15.28,20.37-20,32.55-31.25C997.89,939.8,993.63,929.61,982.13,909.68Z"/>
      <path class="a70b1741-45a9-4e38-9b3a-b818a7a0b013" d="M1075.4,277.93c-7.23-15.6-10.29-23.68-17.41-39.29-7.4,14.55-11.5,22.29-20.79,38.81-.55,30.73-.83,46.18.56,75.67,9.83,13.36,14.44,20.22,24.3,33.68,6.49-14.59,9.56-21.68,16-35.94C1075.83,322.47,1075.6,307.65,1075.4,277.93Z"/>
      <path class="bc791bc4-660c-444b-8c91-03abd2158c6c" d="M1062.06,386.8c-9.86-13.46-14.47-20.32-24.3-33.68-8.44,16.13-13,24.57-21.72,41,3.43,28.11,6.13,41.47,14,66.45,13.44,10.85,20.06,16.36,33.44,27.42,4.2-13.33,6.67-20.32,11.57-34.14C1068,428.24,1065.44,414.85,1062.06,386.8Z"/>
      <path class="f8382149-e69b-40f4-9176-61b7ebf19d7a" d="M1063.49,488c-13.38-11.06-20-16.57-33.44-27.42-5.55,14.14-6.68,22.44-16.51,38.74,4.59,26.51,6,39.3,8.61,65.5,14.58,9.65,21.72,14.58,36.43,24.5,11.51-15.7,17.46-23.08,26-38.16C1079,525.55,1072.68,512.41,1063.49,488Z"/>
      <path class="b6a24dc8-0884-4b54-afa8-06f58d90527d" d="M1058.58,589.34c-14.71-9.92-21.85-14.85-36.43-24.5-12,16.56-19,25.08-31.12,41.91,3.23,25.85,5.2,38.45,12.73,62.92,15.46,8.34,23,12.65,38.8,21.3,7.4-15.49,12.72-23.24,24-38.54C1062.18,627.67,1061.77,615,1058.58,589.34Z"/>
      <path class="a66dd016-8244-4ba4-a40a-cbca1a761466" d="M1042.56,691c-15.82-8.65-23.34-13-38.8-21.3-7.91,16.14-10.31,24-13.56,39.32,13.7,23.46,22.24,34.76,40.58,57.5,17.87,8,26.62,12.13,44.79,20.34-1.84-14.64-2.93-21.93-1.92-36.61C1057.24,726.91,1051,715.11,1042.56,691Z"/>
      <path class="f5d48855-2f25-4eed-b891-64cb42316cda" d="M1075.57,786.83c-18.17-8.21-26.92-12.36-44.79-20.34.47,14.75,1.1,22.18.18,36.91,18.77,22.83,29.61,33.25,46.34,57.09,20.86,8,31.14,12.19,52.12,20.27,2.91-15.85.89-22.18-.79-36.55C1107.09,821.51,1095.57,809.67,1075.57,786.83Z"/>
      <path class="acd0f2e0-9894-48da-908e-ba716f0ec067" d="M1129.42,880.76c-21-8.08-31.26-12.25-52.12-20.27-4.11,15.83-7.1,24.6-16.38,38.62,12.74,22.17,19.19,32.48,31.45,54,22.37,9.08,33.44,13.85,55.86,22.83a287.91,287.91,0,0,0,22.51-35.74C1156.93,917.24,1147.48,904.7,1129.42,880.76Z"/>
      <path class="a70b1741-45a9-4e38-9b3a-b818a7a0b013" d="M1148.23,975.91c-22.42-9-33.49-13.75-55.86-22.83-10.12,12.41-15.53,18-27.34,29.35,10.87,21.41,16,32.64,24.86,57.14,22.63,11.77,33.84,18,56.51,29.47,13.73-14,20-20.81,31.58-35C1166.86,1010.06,1160.8,998.55,1148.23,975.91Z"/>
      <path class="a70b1741-45a9-4e38-9b3a-b818a7a0b013" d="M1151.72,375.47c-11.42-12.06-16.89-17.85-28.3-29.85-9.31,15.82-13.32,23.43-20.37,38.05,4.35,26.7,7,39.79,14,65.34,12.11,11.82,18.44,17.55,30.94,28.95a317.44,317.44,0,0,1,13.19-35.21C1155.75,416.62,1153.94,403.16,1151.72,375.47Z"/>
      <path class="ba1e5907-e50e-493e-b8aa-097d5c807504" d="M1148,478c-12.5-11.4-18.83-17.13-30.94-28.95-5.15,13.73-7.33,20.35-11.24,33.32,8.48,24.91,13.39,37.11,25.17,60.74,14.53,11.08,22.58,16.47,37.86,26.65,1.29-12.28,1.93-18.43,3.86-31.09C1160.93,515.21,1156.06,503,1148,478Z"/>
      <path class="b2765e6b-09e4-44e6-aab4-4bf112b1d918" d="M1168.82,569.72c-15.28-10.18-23.33-15.57-37.86-26.65-2.75,12.55-3.49,20-11.44,34.28,6.28,25.59,8,38.16,15.61,62.94,18.91,10.4,31.28,15.56,51.18,24.24,8.19-14.67,11.91-21.95,16.53-36.32C1190.28,604.56,1182.81,592.19,1168.82,569.72Z"/>
      <path class="a66dd016-8244-4ba4-a40a-cbca1a761466" d="M1186.31,664.53c-19.9-8.68-32.27-13.84-51.18-24.24-11.31,14.36-19.18,21.73-31.06,35.88,6.16,24.85,10.84,37,25.56,61,24.7,9.74,42.31,14.7,68.23,21.84,8.19-15.11,13.14-22.53,21.37-37.15C1203.74,699.52,1198,687.89,1186.31,664.53Z"/>
      <path class="f7033117-1aae-489d-be01-a0f86ed25ceb" d="M1197.86,759c-25.92-7.14-43.53-12.1-68.23-21.84-10,14.24-12.91,21.2-14.35,35,19.17,23.74,31.93,35.2,56.8,58.15,24.81,9,41,13.51,66.62,20.65,2.6-14.87,4.81-22.39,10.2-37.43C1226.83,791.8,1215.58,781.25,1197.86,759Z"/>
      <path class="f6c30f8c-ba8b-4e24-be77-4a91594452bc" d="M1238.7,850.92c-25.65-7.14-41.81-11.67-66.62-20.65.07,14,2.13,21.53,4.61,35.36,23.13,22.92,36.52,33.33,56.55,57.17,21.6,8.54,33.36,12.76,55.22,20.76,3.09-15.31,2.48-21.77,5.61-36.75C1273.37,884.39,1261.74,872.93,1238.7,850.92Z"/>
      <path class="b49705bb-d32b-4ab1-bcb9-2f75acd8d21f" d="M1288.46,943.56c-21.86-8-33.62-12.22-55.22-20.76-1.56,15.29-1.36,23.6-8.64,38.19,14.63,22.43,21.93,33.42,35.47,56.88,22.41,8.33,33.45,12.89,55.49,22a313.66,313.66,0,0,0,18-39C1317.57,978.08,1307.24,966.87,1288.46,943.56Z"/>
      <path class="a70b1741-45a9-4e38-9b3a-b818a7a0b013" d="M1315.56,1039.91c-22-9.15-33.08-13.71-55.49-22a396.64,396.64,0,0,1-25.28,38.44c11.76,23.64,17.17,36,26.58,61.76,22.74,10.28,33.83,16.57,55.55,29.07a321.59,321.59,0,0,0,29.56-40.65C1335.38,1078.45,1329.15,1065,1315.56,1039.91Z"/>
      <path class="a70b1741-45a9-4e38-9b3a-b818a7a0b013" d="M1237.61,463.75c-11.77-11.48-17.51-17.26-29.09-29.05a246.31,246.31,0,0,0-18.45,36.72c6.09,25.95,10.07,38.55,20,63,12.38,11.57,18.23,17.56,30.62,28.49,1.88-13,3.79-19.62,9.11-33.72C1242.88,503.75,1240.27,490.56,1237.61,463.75Z"/>
      <path class="bc76f51e-7182-4174-bfeb-cde75e1f51ed" d="M1240.69,562.92c-12.39-10.93-18.24-16.92-30.62-28.49a204.47,204.47,0,0,0-3.73,30.9c13.3,23.08,21,34.18,38.4,55.34,14.89,10.8,21.92,16.61,34.67,27.45-4.65-10.06-6-15.2-7.54-26.63C1257.73,598.74,1251.21,586.91,1240.69,562.92Z"/>
      <path class="b8282d60-4717-4934-b2ac-bd1f7935c525" d="M1279.41,648.12c-12.75-10.84-19.78-16.65-34.67-27.45,2.56,10.37,2.41,17.38.21,30.79,15,23.25,23.57,34.94,42.15,57.57,20,10.15,27.91,15.68,41.73,25.82-3.68-12.08-5-17.93-8.14-29.84C1304.53,681.68,1296.82,669,1279.41,648.12Z"/>
      <path class="f5d48855-2f25-4eed-b891-64cb42316cda" d="M1328.83,734.85c-13.82-10.14-21.75-15.67-41.73-25.82-1.41,12.48-5.3,18.83-9.8,32.43,18.27,21.89,31,33.23,53.42,55.47,26.59,9.54,36,14.8,51.15,23.86a243.79,243.79,0,0,0-8.36-29.76C1355.27,768.82,1346.32,757.06,1328.83,734.85Z"/>
      <path class="f6c30f8c-ba8b-4e24-be77-4a91594452bc" d="M1381.87,820.79c-15.1-9.06-24.56-14.32-51.15-23.86-4.13,12.71-9.56,18.71-14.62,33.63,20.94,22.09,33.84,34.1,53,57.38,26.2,8.73,36.56,13.41,54.2,21.59,2.86-14.39,3.86-20.95,3.05-33.65C1409.54,853.52,1399.85,842.44,1381.87,820.79Z"/>
      <path class="abb0e6a1-8d06-423d-b381-193ec765a7a4" d="M1423.33,909.53c-17.64-8.18-28-12.86-54.2-21.59-7,14.55-11.62,22.11-16.56,37.5,18.28,23,28.86,34.45,45.3,57.86,22.06,8.21,32.2,12.42,53.3,19.67,4.86-15.17,6.51-22.16,10.21-36.66C1445.58,943.75,1438.1,932.11,1423.33,909.53Z"/>
      <path class="af7b8fc3-d8dd-4cdf-b994-00d4ad78b55b" d="M1451.17,1003c-21.1-7.25-31.24-11.46-53.3-19.67-5.64,15.2-5.36,21.89-10.74,37.33,16.55,23.29,24.21,36.26,38.24,63.7,22.5,8.12,33.89,11.74,56.79,18.51,8-20.14,11.08-29.44,14.94-45.19C1478.83,1035,1467.41,1025.4,1451.17,1003Z"/>
      <path class="a70b1741-45a9-4e38-9b3a-b818a7a0b013" d="M1482.16,1102.84c-22.9-6.77-34.29-10.39-56.79-18.51a391.52,391.52,0,0,1-24.82,48.69c11.19,29.44,16.11,44.94,25.12,74.4,22.81,10.31,34.5,14.64,59.11,19.48,14.39-22,21-33.93,32.25-56.25C1503.94,1143.88,1497,1129.74,1482.16,1102.84Z"/>
      <path class="a70b1741-45a9-4e38-9b3a-b818a7a0b013" d="M1330.64,544.48c-13.24-9.77-19.67-14.89-32.35-25.48-9.52,15.78-13.28,23.12-18.52,37.48,7,25.17,11.7,37.62,22.54,61.62a414.5,414.5,0,0,0,32.61,25.76c2.21-13.85,3.83-21.36,9.71-36.49C1336.91,583,1334.07,570.51,1330.64,544.48Z"/>
      <path class="eabc8d99-3a4f-4987-af98-b80f6f7b2587" d="M1334.92,643.86a414.5,414.5,0,0,1-32.61-25.76c-1.81,13.2-1.89,19.33-.25,31,14,22.92,21.89,34.23,38.64,56.34,12.37,11.45,18.6,17,32.22,27.17-3.48-11.84-5.2-18.76-6.05-31.91C1352.51,678.4,1346.27,667.43,1334.92,643.86Z"/>
      <path class="bb935f2c-a7a4-4297-b53f-bdc2f9ce3537" d="M1372.92,732.62c-13.62-10.13-19.85-15.72-32.22-27.17,4.38,10.66,6.77,16.29,10.76,27.75C1368,756.32,1376.72,768,1395.12,790c13.3,11.14,19.88,16.54,34.44,26.27-5-11.28-7.78-18-12.46-30.14C1398.75,764.77,1390,754.58,1372.92,732.62Z"/>
      <path class="acd0f2e0-9894-48da-908e-ba716f0ec067" d="M1429.56,816.25c-14.56-9.73-21.14-15.13-34.44-26.27,5.1,10.89,7.05,16.46,11.93,27.42,18.56,22,28.17,32.83,47.44,54.27,14.51,10.4,21.57,15.41,37.33,24.33-4.86-11.39-8.12-17.43-13.65-28.9C1457.81,847.2,1449.12,837.25,1429.56,816.25Z"/>
      <path class="b49705bb-d32b-4ab1-bcb9-2f75acd8d21f" d="M1491.82,896c-15.76-8.92-22.82-13.93-37.33-24.33,4.75,11.05,7.09,16.39,9.68,28.19,18,21.83,26.9,32.7,45.39,53.86,17.32,8.91,25.84,13.22,44,21-2.67-11.92-5.23-17.9-10-29.56C1522.31,925.92,1512.44,916.3,1491.82,896Z"/>
      <path class="af7b8fc3-d8dd-4cdf-b994-00d4ad78b55b" d="M1553.55,974.76c-18.15-7.82-26.67-12.13-44-21,1.18,12.26.62,18.67-.92,32.33,17.71,21.72,27.82,32,47.26,53,21.15,7,31.7,10.49,53.14,17,.29-13.59-1-20.08-3.2-32.78C1584.15,1003.78,1574.38,994.5,1553.55,974.76Z"/>
      <path class="a44c0e48-8dd0-4b0e-9dcd-020f2f852a0c" d="M1609,1056c-21.44-6.5-32-10-53.14-17-1.71,14-1.24,19.9-4.18,35.15,19.27,21.76,28.41,33.5,45.77,56.34,23.32,4.94,35,7.34,58.36,12.65,4.8-16.09,5.81-23.55,6.73-37.66C1641.66,1084.94,1630.19,1076.12,1609,1056Z"/>
      <path class="a70b1741-45a9-4e38-9b3a-b818a7a0b013" d="M1655.85,1143.19c-23.31-5.31-35-7.71-58.36-12.65-6,17.9-10,27.85-20.13,49,14.31,24.17,21.06,35.85,33.15,58.06,25.4,1,38.27,1.38,63.5,3.87,12.49-19,17.49-28.17,25.25-44.69C1683,1175.07,1674.34,1164.59,1655.85,1143.19Z"/>
      <path class="a70b1741-45a9-4e38-9b3a-b818a7a0b013" d="M1436.69,603.46a297.84,297.84,0,0,1-36.87-16c-10.67,17.53-14.6,25.81-20.58,41.64,8.19,23.86,13.37,35.38,25.75,57.83a346.24,346.24,0,0,0,37.14,16.49c2.16-16,4.07-24.33,10.46-42C1443.75,639,1440.53,627.44,1436.69,603.46Z"/>
      <path class="a70b1741-45a9-4e38-9b3a-b818a7a0b013" d="M1442.13,703.42A346.24,346.24,0,0,1,1405,686.93c-2.24,15.11-2.42,22.3-1.78,36.17,15.51,21.95,24.18,32.64,43.1,53.65,15.76,7.45,23.74,10.87,40,17-3.7-14.29-5.16-21.67-6.45-37.18C1462.69,735.82,1455.09,725.23,1442.13,703.42Z"/>
      <path class="a70b1741-45a9-4e38-9b3a-b818a7a0b013" d="M1486.29,793.76c-16.24-6.14-24.22-9.56-40-17,3.16,13.56,5.77,19.5,9.89,31.92,20.39,20.43,31,30.56,53.17,49.64,17.23,7.21,25.92,10.53,43.49,16.51-5.47-12.26-8.12-18.72-13.39-32.26C1517.09,823.52,1506.22,814.2,1486.29,793.76Z"/>
      <path class="a70b1741-45a9-4e38-9b3a-b818a7a0b013" d="M1552.86,874.82c-17.57-6-26.26-9.3-43.49-16.51,5,11.88,6.8,17.85,11.5,29.37,22.69,19,34.53,28.32,58.46,46.82,19,6.76,28.5,9.88,47.65,15.46-5.74-12.11-8.87-18.15-14.93-30.48C1587.48,902,1575.91,893.06,1552.86,874.82Z"/>
      <path class="a70b1741-45a9-4e38-9b3a-b818a7a0b013" d="M1627,950c-19.15-5.58-28.68-8.7-47.65-15.46,5,11.75,7,17.7,11.06,29.42,23.86,18.71,36.16,27.83,60.6,46,20.71,6.22,31.1,9.1,51.89,14.28-4.48-12.29-7.14-18.38-12.74-30.73C1664.46,976.41,1651.88,967.67,1627,950Z"/>
      <path class="a70b1741-45a9-4e38-9b3a-b818a7a0b013" d="M1702.88,1024.24c-20.79-5.18-31.18-8.06-51.89-14.28,3.73,12,4.79,18,7,30.55,23.73,18.94,36,28.07,59.64,47.33,22.27,5.7,33.42,8.36,55.68,13.14-2.18-13.88-3.9-20.34-7.5-33.28C1740.62,1050.36,1728.15,1041.7,1702.88,1024.24Z"/>
      <path class="a70b1741-45a9-4e38-9b3a-b818a7a0b013" d="M1773.31,1101c-22.26-4.78-33.41-7.44-55.68-13.14,1.36,13.56,2.06,19.88,1.28,34.21,22.19,20.3,33,30.5,53.15,51.23,23.6,5.62,35.4,8.27,59,13.18,2.86-15.55,3.3-23.2,2.54-38.47C1809.93,1128.42,1797.75,1119.66,1773.31,1101Z"/>
      <path class="a70b1741-45a9-4e38-9b3a-b818a7a0b013" d="M1831,1186.46c-23.55-4.91-35.35-7.56-59-13.18-3.44,15.12-6,22.8-13.28,38.56,16.8,21.67,24.46,32.67,37.43,55.21,24.29,5.7,36.43,8.44,60.69,13.69,11.16-17.2,15.5-25.58,22-42.14C1861.45,1217.29,1851.71,1206.92,1831,1186.46Z"/>
      <path class="efacff6e-c36d-4b6c-b81f-4cbb728451fb" d="M646.2,473.72c145.54-6.6,243.11,126.21,243.11,126.21"/>
      <path class="efacff6e-c36d-4b6c-b81f-4cbb728451fb" d="M889.93,600.44c235.66,69.23,280.81,339.73,280.81,339.73"/>
      <path class="efacff6e-c36d-4b6c-b81f-4cbb728451fb" d="M1219.53,722s15.26,54.48-48.79,212.55"/>
      <path class="efacff6e-c36d-4b6c-b81f-4cbb728451fb" d="M1219.53,722s-98-212.58-329.6-121.51"/>
      <path class="a42dde86-d0b3-41f5-9fa0-b94d9948379b" d="M110,562.92S409.61,378,646.2,472.91"/>
      <path class="b9e5f7ff-20d7-4a90-bfda-3698e78583fd" d="M126.22,231.08s355.9,15.44,516,239.93"/>
    </g>
    <g id="ad658f4c-b35f-4532-a96e-ede436278763" data-name="圖層 7">
      <circle class="a4f37591-200f-44d6-a580-8427f86efe80" cx="646.2" cy="473.72" r="7.33"/>
      <circle class="efacff6e-c36d-4b6c-b81f-4cbb728451fb" cx="646.2" cy="473.72" r="11"/>
      <circle class="b4527b48-3317-4453-baf5-7af784a3cc6e" cx="646.2" cy="473.72" r="21.26"/>
      <circle class="e3682b8e-c5e4-4151-a659-570d355445f5" cx="646.2" cy="473.72" r="53.15"/>
      <path class="a4f37591-200f-44d6-a580-8427f86efe80" d="M897.32,601.28a7.24,7.24,0,0,1-7.43,6.91,7.89,7.89,0,0,1-7.42-7.75,6.63,6.63,0,0,1,7.44-6.9C894.13,593.92,897.45,597.37,897.32,601.28Z"/>
      <path class="efacff6e-c36d-4b6c-b81f-4cbb728451fb" d="M901,601.48a11.11,11.11,0,0,1-11.15,10.37c-5.88,0-10.85-5.26-11.12-11.64s4.73-11,11.15-10.33S901.31,595.73,901,601.48Z"/>
      <path class="b4527b48-3317-4453-baf5-7af784a3cc6e" d="M911.42,602c-1,10.56-10.68,19.58-21.55,20.07s-20.49-9.63-21.49-22.51,8.65-21.77,21.54-19.94S912.45,591.46,911.42,602Z"/>
      <path class="e3682b8e-c5e4-4151-a659-570d355445f5" d="M943.72,603.5c-6.45,22.08-30.52,44.84-53.89,50.42s-47.47-19.91-53.7-56.53,17.79-58.53,53.84-49.58S950.17,581.42,943.72,603.5Z"/>
      <path class="a4f37591-200f-44d6-a580-8427f86efe80" d="M1233.16,722.26c.66,4.23-4.51,8-11.54,7.83s-12.7-4-12.7-7.83,5.18-6.64,11.55-6.83S1232.5,718,1233.16,722.26Z"/>
      <path class="efacff6e-c36d-4b6c-b81f-4cbb728451fb" d="M1239.2,721.64c1.26,6.45-6.49,12.55-17.29,12.12s-19.26-6.52-19-12.12,8-9.45,17.3-9.88S1237.93,715.18,1239.2,721.64Z"/>
      <path class="b4527b48-3317-4453-baf5-7af784a3cc6e" d="M1255.94,718.56c4,13-11,27.05-33.23,25.46s-38.16-15.63-36.56-25.46,16.61-15.47,33.22-17.06S1252,705.58,1255.94,718.56Z"/>
      <path class="e3682b8e-c5e4-4151-a659-570d355445f5" d="M1304.83,696.53c23.24,33.41-13.51,89.35-79.62,79.38s-98.19-64.55-88-79.38,48.63-16.95,79.62-26.92S1281.59,663.13,1304.83,696.53Z"/>
      <path class="a4f37591-200f-44d6-a580-8427f86efe80" d="M1182.56,939.2c-.55,4-6.69,6.42-13.77,6.2s-13.06-3-13.36-7,5.89-7.87,13.81-7.62S1183.11,935.19,1182.56,939.2Z"/>
      <path class="efacff6e-c36d-4b6c-b81f-4cbb728451fb" d="M1189.28,940.3c-1.14,6-10.3,9.09-20.6,8.77s-19.26-4-20-10,8.5-12.33,20.71-12S1190.42,934.33,1189.28,940.3Z"/>
      <path class="b4527b48-3317-4453-baf5-7af784a3cc6e" d="M1207.73,945.23c-3.87,11.09-21.19,14.65-39.37,14.09s-35.25-5.2-38.43-16.5,14.42-26.79,39.75-26S1211.6,934.15,1207.73,945.23Z"/>
      <path class="e3682b8e-c5e4-4151-a659-570d355445f5" d="M1258.7,978.1c-21.24,20.27-59.27,14.09-91.33,13.09S1097,994,1077,972.47s16.94-89.9,93.64-87.52S1279.93,957.84,1258.7,978.1Z"/>
    </g>
  </g>
</svg>
