<?xml version="1.0" encoding="UTF-8"?>
<svg width="735px" height="510px" viewBox="0 0 735 510" version="1.1" xmlns="http://www.w3.org/2000/svg" xmlns:xlink="http://www.w3.org/1999/xlink">
    <title>undraw_Container_ship_ok1c(1)</title>
    <defs>
        <linearGradient x1="50.0000081%" y1="100%" x2="50.0000081%" y2="0%" id="linearGradient-1">
            <stop stop-color="#808080" stop-opacity="0.25" offset="0%"></stop>
            <stop stop-color="#808080" stop-opacity="0.12" offset="53.514%"></stop>
            <stop stop-color="#808080" stop-opacity="0.1" offset="100%"></stop>
        </linearGradient>
        <linearGradient x1="50.0000125%" y1="100%" x2="50.0000125%" y2="-0.000131047902%" id="linearGradient-2">
            <stop stop-color="#808080" stop-opacity="0.25" offset="0%"></stop>
            <stop stop-color="#808080" stop-opacity="0.12" offset="53.514%"></stop>
            <stop stop-color="#808080" stop-opacity="0.1" offset="100%"></stop>
        </linearGradient>
        <linearGradient x1="50%" y1="100%" x2="50%" y2="-1.32563943e-15%" id="linearGradient-3">
            <stop stop-color="#808080" stop-opacity="0.25" offset="0%"></stop>
            <stop stop-color="#808080" stop-opacity="0.12" offset="53.514%"></stop>
            <stop stop-color="#808080" stop-opacity="0.1" offset="100%"></stop>
        </linearGradient>
    </defs>
    <g id="Product---ArgusHack" stroke="none" stroke-width="1" fill="none" fill-rule="evenodd">
        <g id="Desktop-HD-1080P" transform="translate(-240.000000, -2096.000000)" fill-rule="nonzero">
            <g id="Features" transform="translate(218.000000, 712.000000)">
                <g id="undraw_Container_ship_ok1c(1)" transform="translate(22.000000, 1384.000000)">
                    <rect id="Rectangle" stroke="#5D5D60" fill="#5D5D60" x="135" y="129" width="9" height="116"></rect>
                    <rect id="Rectangle" fill="#FE004D" x="321" y="210" width="86" height="52"></rect>
                    <rect id="Rectangle" fill="#006ADA" x="407" y="210" width="86" height="52"></rect>
                    <rect id="Rectangle" fill="#9E3CDD" x="494" y="210" width="86" height="52"></rect>
                    <rect id="Rectangle" fill="#9E3CDD" x="320" y="262" width="86" height="52"></rect>
                    <rect id="Rectangle" fill="#FE004D" x="235" y="262" width="86" height="52"></rect>
                    <rect id="Rectangle" fill="#9E3CDD" x="407" y="262" width="86" height="52"></rect>
                    <rect id="Rectangle" fill="#FE004D" x="494" y="262" width="86" height="52"></rect>
                    <g id="Group" opacity="0.1" transform="translate(337.000000, 210.000000)" fill="#000000">
                        <rect id="Rectangle" x="0" y="0" width="11.25" height="52"></rect>
                        <rect id="Rectangle" x="21.8749961" y="0" width="11.25" height="52"></rect>
                        <rect id="Rectangle" x="43.75" y="0" width="11.25" height="52"></rect>
                    </g>
                    <g id="Group" opacity="0.1" transform="translate(423.000000, 210.000000)" fill="#000000">
                        <rect id="Rectangle" x="0" y="0" width="11.2499984" height="52"></rect>
                        <rect id="Rectangle" x="21.8750008" y="0" width="11.2499984" height="52"></rect>
                        <rect id="Rectangle" x="43.7500016" y="0" width="11.2499984" height="52"></rect>
                    </g>
                    <g id="Group" opacity="0.1" transform="translate(509.000000, 210.000000)" fill="#000000">
                        <rect id="Rectangle" x="0" y="0" width="11.2499984" height="52"></rect>
                        <rect id="Rectangle" x="21.8750008" y="0" width="11.2499984" height="52"></rect>
                        <rect id="Rectangle" x="43.7500016" y="0" width="11.2499984" height="52"></rect>
                    </g>
                    <g id="Group" opacity="0.1" transform="translate(337.000000, 262.000000)" fill="#000000">
                        <rect id="Rectangle" x="0" y="0" width="11.25" height="52"></rect>
                        <rect id="Rectangle" x="21.8749961" y="0" width="11.25" height="52"></rect>
                        <rect id="Rectangle" x="43.75" y="0" width="11.25" height="52"></rect>
                    </g>
                    <g id="Group" opacity="0.1" transform="translate(250.000000, 262.000000)" fill="#000000">
                        <rect id="Rectangle" x="0" y="0" width="11.2499984" height="52"></rect>
                        <rect id="Rectangle" x="21.8750008" y="0" width="11.2499984" height="52"></rect>
                        <rect id="Rectangle" x="43.7500016" y="0" width="11.2499984" height="52"></rect>
                    </g>
                    <g id="Group" opacity="0.1" transform="translate(423.000000, 262.000000)" fill="#000000">
                        <rect id="Rectangle" x="0" y="0" width="11.2499984" height="52"></rect>
                        <rect id="Rectangle" x="21.8750008" y="0" width="11.2499984" height="52"></rect>
                        <rect id="Rectangle" x="43.7500016" y="0" width="11.2499984" height="52"></rect>
                    </g>
                    <g id="Group" opacity="0.1" transform="translate(509.000000, 262.000000)" fill="#000000">
                        <rect id="Rectangle" x="0" y="0" width="11.2499984" height="52"></rect>
                        <rect id="Rectangle" x="21.8750008" y="0" width="11.2499984" height="52"></rect>
                        <rect id="Rectangle" x="43.7500016" y="0" width="11.2499984" height="52"></rect>
                    </g>
                    <rect id="Rectangle" stroke="#5D5D60" fill="#5D5D60" x="16" y="375" width="668" height="21"></rect>
                    <path d="M623.530726,294.44843 L230.555866,294.44843 C225.33248,294.43313 221.10189,290.201835 221.086592,284.977578 L221.086592,227.107516 L68,210 L68,386 L633,386 L633,284.977578 C632.984732,290.201847 628.754124,294.43316 623.530726,294.44843 L623.530726,294.44843 Z" id="Path" fill="#86888A"></path>
                    <rect id="Rectangle" fill="#FFFFFF" x="68" y="229" width="58" height="33"></rect>
                    <circle id="Oval" stroke="#5D5D60" fill="#5D5D60" cx="139.5" cy="128.5" r="16.5"></circle>
                    <path d="M75,392.575054 C80.8665527,376.783765 99.3135707,368.559332 116.19051,369.217821 C133.067449,369.876311 148.787125,377.478437 163.915343,384.966478 C179.043561,392.454519 194.708502,400.130347 211.578097,400.955063 C249.066645,402.787784 280.615815,370.966221 317.974184,367.354786 C362.384998,363.061578 401.797013,399.12051 446.391218,400.605729 C454.233693,400.866928 462.232152,400.002363 469.45404,396.942703 C475.740068,394.279547 481.217976,390.059695 487.154971,386.693137 C517.117527,369.702831 554.593745,376.117897 587.74291,385.538633 C620.892075,394.959368 655.303468,407.028181 689,399.790924" id="Path" fill="#4D8AF0"></path>
                    <path d="M0,422.575061 C5.86655298,406.783772 24.313572,398.559338 41.1905119,399.217828 C58.0674518,399.876317 73.7871293,407.478444 88.9153477,414.966477 C104.043566,422.454511 119.708509,430.130355 136.578112,430.955063 C174.066662,432.787784 205.615826,400.96622 242.974197,397.354785 C287.385021,393.061585 326.79703,429.12051 371.391245,430.605737 C379.233712,430.866935 387.232171,430.002363 394.454068,426.94271 C400.740088,424.279547 406.217997,420.059695 412.155,416.693136 C442.117558,399.70283 479.593777,406.117896 512.742944,415.538632 C545.892111,424.959368 580.303482,437.028181 614,429.790924" id="Path" fill="#4D8AF0"></path>
                    <path d="M80,461.575056 C85.866553,445.783766 104.313564,437.559332 121.190512,438.217821 C138.06746,438.876311 153.787129,446.478438 168.91534,453.966479 C184.04355,461.454521 199.708509,469.13035 216.578104,469.955066 C254.066654,471.787787 285.615826,439.966221 322.974189,436.354786 C367.385013,432.061578 406.79703,468.120505 451.391237,469.605732 C459.233712,469.86693 467.232171,469.002366 474.45406,465.942705 C480.740088,463.279541 486.217997,459.059697 492.154953,455.693131 C522.117518,438.702832 559.59373,445.11789 592.742897,454.538634 C625.892064,463.959379 660.303467,476.028184 694,468.790919" id="Path" fill="#4D8AF0"></path>
                    <path d="M121,500.575053 C126.866553,484.783764 145.313563,476.559331 162.19051,477.21782 C179.067457,477.87631 194.787125,485.478436 209.915335,492.966477 C225.043545,500.454518 240.708502,508.130347 257.578097,508.955063 C295.066645,510.787784 326.615815,478.96622 363.974176,475.354785 C408.384998,471.061585 447.797013,507.12051 492.391218,508.605729 C500.233693,508.866928 508.232152,508.002363 515.45404,504.94271 C521.740068,502.279547 527.217976,498.059695 533.154971,494.693136 C563.117527,477.70283 600.593737,484.117896 633.742902,493.538632 C666.892067,502.959368 701.303468,515.028181 735,507.790924" id="Path" fill="#4D8AF0"></path>
                    <g id="Group" opacity="0.5" transform="translate(184.000000, 53.000000)" fill="url(#linearGradient-1)">
                        <path d="M23.363054,37 L17.9120379,36.0459567 C18.0540554,34.7131953 18.2737552,33.3896545 18.5700407,32.0819404 C19.4954096,20.5244383 11.3920399,8.36261616 0,5.29547807 L1.45782401,0 C11.8377896,2.79468274 19.8431483,11.3855374 22.8802724,21.3904937 C28.3077812,12.2037122 37.3866466,5.69334345 47.9025723,3.44723853 L49,8.82757692 C37.058341,11.2095615 26.908251,21.2520258 24.0693864,32.9560338 C23.9352484,34.3194248 23.6991581,35.6711133 23.363054,37 L23.363054,37 Z" id="Path"></path>
                    </g>
                    <path d="M207.025477,87 L202.353172,86.1748573 C202.474902,85.0221988 202.663218,83.877515 202.917181,82.7465198 C203.710351,72.7508532 196.76461,62.2325302 187,59.5798665 L188.249558,55 C197.146675,57.4170195 204.008413,64.8469431 206.611669,73.499866 C211.263816,65.554548 219.0457,59.9239642 228.059349,57.9813918 L229,62.6346588 C218.764296,64.6947466 210.064217,73.3801214 207.630901,83.5024945 C207.515932,84.681651 207.31357,85.8506863 207.025477,87 L207.025477,87 Z" id="Path" fill="#706A6A"></path>
                    <g id="Group" opacity="0.5" transform="translate(308.000000, 16.000000)" fill="url(#linearGradient-2)">
                        <path d="M15.2575082,24 L11.6976569,23.3811918 C11.7904066,22.5166957 11.933884,21.6581801 12.127373,20.8099298 C12.7317049,13.3131668 7.43970226,5.42440813 0,3.43490441 L0.952050914,0 C7.73079814,1.8127699 12.9587896,7.38522808 14.942223,13.8749298 C18.4867155,7.91592994 24.4157689,3.69298401 31.2833104,2.236052 L32,5.72600439 C24.2013646,7.27105915 17.5727318,13.7851201 15.7187855,21.3769137 C15.6311853,22.2612666 15.4770042,23.1380285 15.2575082,24 Z" id="Path"></path>
                    </g>
                    <g id="Group" opacity="0.5" transform="translate(522.000000, 0.000000)" fill="url(#linearGradient-2)">
                        <path d="M15.2575082,24 L11.6976569,23.3811918 C11.7904066,22.5166957 11.933884,21.6581801 12.127373,20.8099298 C12.7317049,13.3131668 7.43970226,5.42440813 0,3.43490441 L0.952050914,0 C7.73079814,1.8127699 12.9587896,7.38522808 14.942223,13.8749298 C18.4867155,7.91592994 24.4157689,3.69298401 31.2833104,2.236052 L32,5.72600439 C24.2013646,7.27105915 17.5727318,13.7851201 15.7187855,21.3769137 C15.6311853,22.2612666 15.4770042,23.1380285 15.2575082,24 L15.2575082,24 Z" id="Path"></path>
                    </g>
                    <path d="M324.012724,36 L321.67658,35.5874375 C321.737441,35.0110964 321.831598,34.4387427 321.958581,33.8732336 C322.355161,28.8754056 318.882297,23.6162442 314,22.2899263 L314.624784,20 C319.061604,21.3258467 322.51974,24.8099306 323.805853,29.2499571 C326.131922,25.2773065 330.022856,22.4620204 334.529672,21.4907362 L335,23.8173586 C329.757332,25.0166275 325.630422,29.0467319 324.315468,34.251262 C324.257971,34.8408359 324.156779,35.4253485 324.012724,36 L324.012724,36 Z" id="Path" fill="#706A6A"></path>
                    <path d="M538.012724,20 L535.67658,19.5874375 C535.737441,19.0110964 535.831598,18.4387427 535.958581,17.8732336 C536.355161,12.8754056 532.882297,7.6162442 528,6.28992633 L528.624784,4 C533.061604,5.32584673 536.51974,8.80993061 537.805853,13.2499571 C540.131922,9.27730653 544.022856,6.4620204 548.529672,5.49073624 L549,7.81735863 C543.757332,9.01662749 539.630422,13.0467319 538.315468,18.251262 C538.257971,18.8408359 538.156779,19.4253485 538.012724,20 L538.012724,20 Z" id="Path" fill="#706A6A"></path>
                    <g id="Group" opacity="0.5" transform="translate(56.000000, 8.000000)" fill="url(#linearGradient-3)">
                        <circle id="Oval" cx="53" cy="53" r="53"></circle>
                    </g>
                </g>
            </g>
        </g>
    </g>
</svg>