<svg xmlns="http://www.w3.org/2000/svg" viewBox="0 0 527.43 106.05"><defs><style>.a59db80b-8a1c-41d3-8773-46b17ba1d324{fill:#fff;}</style></defs><g id="a18837f2-fafb-477f-b64c-0d09a72f284b" data-name="圖層 2"><g id="bc61c285-1cfe-4a64-b6b0-43f404b62d06" data-name="圖層 2"><polygon class="a59db80b-8a1c-41d3-8773-46b17ba1d324" points="0 83.42 33.73 83.42 34.99 71.04 14.45 71.04 14.45 0 0 0 0 83.42"/><path class="a59db80b-8a1c-41d3-8773-46b17ba1d324" d="M58.22,17c-6,0-20.13,2.14-20.13,22V61.79c0,13.63,3.41,22.7,20.08,22.7,13,0,19.54-6.89,19.56-20.47H63.8v.52c0,2.6,0,8.7-5.7,8.7s-5.72-6.39-5.72-8.48V53.92H77.94v-15C77.94,24.34,71.31,17,58.22,17Zm5.87,27.27H52.46V36.62c0-5.69,2-8.58,5.85-8.58,5.09,0,5.78,4.34,5.78,8.58Z"/><path class="a59db80b-8a1c-41d3-8773-46b17ba1d324" d="M81.81,18.81V66.92c0,11.48,6.73,17.3,20,17.3,14.19,0,20.8-5.4,20.8-17V18.81h-14.3V68.22A5.38,5.38,0,0,1,106.62,72,6.68,6.68,0,0,1,102,73.92c-2.74,0-6.09-2.67-6.09-5.7V18.81Z"/><path class="a59db80b-8a1c-41d3-8773-46b17ba1d324" d="M149.67,83.42h14.87L155,43.65l9.3-24.84h-15c-.75,3.38-7.53,29.27-8.4,32.71V18.81h-13.1V83.42h13.1V66l4.55-11.45Z"/><path class="a59db80b-8a1c-41d3-8773-46b17ba1d324" d="M186.51,17c-7.58,0-20.3,2.66-20.3,20.52v26c0,13.95,6.75,21,20,21s20.48-7.28,20.48-21V38.14C206.74,24.29,199.75,17,186.51,17Zm.05,55.76c-3.91,0-5.9-2.82-5.9-8.37V36.7c0-5.38,2-8.11,5.82-8.11,5.81,0,5.81,6,5.81,8V64.21C192.29,66.54,192.29,72.74,186.56,72.74Z"/><path class="a59db80b-8a1c-41d3-8773-46b17ba1d324" d="M231.33,17c-12.91,0-19.46,7.16-19.46,21.28V61.4c0,13.86,3.19,23.09,18.73,23.09,16.91,0,19.24-10.37,19.24-21.58V61.53H236.19v3.36c0,3.11,0,8.31-4.89,8.31s-5-5.48-5-7.82V36c0-2.35,0-7.86,5-7.86,4.51,0,4.89,4.1,4.89,8V39.2H250V36.87C250,27.61,247.85,17,231.33,17Z"/><path class="a59db80b-8a1c-41d3-8773-46b17ba1d324" d="M256.23,105.62a52.58,52.58,0,0,0,6.65.43c12.72,0,16.11-6.07,19.3-20.57,1.16-5.17,4.52-21.18,7.77-36.66,2.86-13.62,5.58-26.57,6.52-30.82H281.79l-.31,2.27c-3,21.84-6.91,45.11-6.91,45.11s-5.3-36-6.94-47.38H252l15,69,0,.19c-.93,5.75-4.28,6.55-7.75,6.55-.95,0-2-.09-2.8-.16Z"/><path class="a59db80b-8a1c-41d3-8773-46b17ba1d324" d="M298.44,30.52h6.5V70c0,10.7,3.34,14.31,13.23,14.31a29.64,29.64,0,0,0,8.45-1.06V72.4a19.18,19.18,0,0,1-2,.11c-4.82,0-5.22-2.93-5.22-5.93V30.52h7.66V18h-7.66V5H305.12V18h-6.68Z"/><path class="a59db80b-8a1c-41d3-8773-46b17ba1d324" d="M349.8,17c-6.06,0-20.14,2.14-20.14,22V61.79c0,13.63,3.42,22.7,20.09,22.7,12.95,0,19.53-6.89,19.55-20.47H355.37v.52c0,2.6,0,8.7-5.69,8.7S344,66.85,344,64.76V53.92h25.57v-15C369.52,24.34,362.88,17,349.8,17Zm5.86,27.27H344V36.62c0-5.69,2-8.58,5.86-8.58,5.09,0,5.77,4.34,5.77,8.58Z"/><rect class="a59db80b-8a1c-41d3-8773-46b17ba1d324" x="374.98" y="44.35" width="22.14" height="11.96"/><polygon class="a59db80b-8a1c-41d3-8773-46b17ba1d324" points="401.94 83.42 435.67 83.42 436.93 71.04 416.39 71.04 416.39 0 401.94 0 401.94 83.42"/><path class="a59db80b-8a1c-41d3-8773-46b17ba1d324" d="M462.78,44c-15.63,0-23.23,6.67-23.23,20.4v1.24c0,4.41,1,18.78,13.39,18.78,5,0,8.37-1.74,10.65-5.47l1.49-2.43.36,2.83c.11.91.44,2.87.74,4.09h13.47c-.25-3.53-.31-9.66-.31-14.42V34.07c0-11.5-6-17.09-18.45-17.09-13.16,0-19.29,5.79-19.29,18.24v0h13.83v-.57c0-2.14,0-7.16,4.77-7.16,4.32,0,4.69,3.76,4.69,7.6V44ZM459.2,72.59c-2.6,0-5.7-1.4-5.7-8.07v-.85c0-6.85,2.94-10.17,9-10.17h2.56v8.89C465.05,67.43,464.36,72.59,459.2,72.59Z"/><path class="a59db80b-8a1c-41d3-8773-46b17ba1d324" d="M500.84,74.29l1.75,3.91c1.9,4.23,5.24,6.29,10.19,6.29,12.2,0,14.65-9.18,14.65-24V36c0-12.81-4.29-19-13.12-19a12.16,12.16,0,0,0-11.09,6.07l-1.87,3.22V5H486.9V67.62c0,1.15,0,2.39,0,3.67,0,4.19,0,8.88-.09,12.13h13.51c.17-1.49.29-3.09.35-4.84Zm6.37-2c-5.19,0-5.86-5.11-5.86-9.55V39.13c0-5.15.74-9.91,6.07-9.91,5.56,0,5.56,6,5.56,9.55v23.6C513,68.92,511,72.25,507.21,72.25Z"/></g></g></svg>