<svg xmlns="http://www.w3.org/2000/svg" viewBox="0 0 558.5 561.69"><defs><style>.b1450b5a-a173-4d64-a742-1c9de3055056{fill:#fff;}</style></defs><g id="f6a2c84f-382d-4272-97b4-21f3d324c503" data-name="圖層 2"><g id="ac803b11-2a16-4942-974e-c048b2a8f2b0" data-name="圖層 5"><path class="b1450b5a-a173-4d64-a742-1c9de3055056" d="M251.57,32.25,169.28,79.73a8,8,0,0,0-4,7.18l4.4,137.71a8,8,0,0,0,4.5,6.94L276.24,281.2a8,8,0,0,0,7,0L385.3,231.56a8,8,0,0,0,4.5-6.94l4.42-138.43a8,8,0,0,0-3.08-6.57L291.17,1.8A1,1,0,0,1,292.28.15L421.64,74.83a16,16,0,0,1,8,13.86V243.31a16,16,0,0,1-8,13.85l-133.9,77.31a16,16,0,0,1-16,0l-133.9-77.31a16,16,0,0,1-8-13.85V90.05a16,16,0,0,1,9.76-14.73L249.79,28.67A2,2,0,0,1,251.57,32.25Z"/></g><g id="eec25553-1c59-4b8b-9ad3-0f8e6d48e255" data-name="圖層 9"><path class="b1450b5a-a173-4d64-a742-1c9de3055056" d="M246.41,460.78l-93,45.48a8,8,0,0,1-7,0l-102-49.62a8,8,0,0,1-4.5-7l-3.92-138a8,8,0,0,1,4-7.15l69.48-40.12a1,1,0,0,0-.86-1.8L10.24,300.57A16,16,0,0,0,0,315.5V468.37a16,16,0,0,0,8,13.86l133.92,77.32a16,16,0,0,0,16,0L266.53,497l-8.15-4.7a24,24,0,0,1-12-20.83Z"/></g><g id="a9aa5ab5-4c63-4ac6-bc54-cc5903cef6c9" data-name="圖層 7"><path class="b1450b5a-a173-4d64-a742-1c9de3055056" d="M261.11,342.45,260,468.21a16,16,0,0,0,8,14l133.82,77.26a16,16,0,0,0,16,0L550.5,482.85A16,16,0,0,0,558.38,467l-16.7-134.89a1,1,0,0,0-2,.13l0,111.1a8,8,0,0,1-4.44,7.16L413.47,511.07a8,8,0,0,1-7.33-.11l-101.86-54.4a8,8,0,0,1-4.23-7l-1-107.17-7.56,4.15a24,24,0,0,1-23.33-.13Z"/></g><g id="bd42aeb3-64ec-4d13-8012-778c3ef91192" data-name="圖層 10"><path class="b1450b5a-a173-4d64-a742-1c9de3055056" d="M99.51,367,101,414.65a8,8,0,0,0,4.49,6.93l40.87,19.91a8,8,0,0,0,7,0l41-20a8,8,0,0,0,4.48-6.93L200.37,367a8,8,0,0,0-4.24-7.32L153.66,337.1a8,8,0,0,0-7.52,0l-42.4,22.58A8,8,0,0,0,99.51,367Z"/><path class="b1450b5a-a173-4d64-a742-1c9de3055056" d="M335.78,141.05l-1.57,49.13a12,12,0,0,1-6.74,10.41l-42.35,20.63a12,12,0,0,1-10.53,0l-42.46-20.76a12,12,0,0,1-6.72-10.4l-1.57-49a12,12,0,0,1,6.36-11l44-23.41a12,12,0,0,1,11.28,0l43.93,23.41A12,12,0,0,1,335.78,141.05Z"/></g></g></svg>