<svg id="bee2e166-b5b8-4cca-92e0-6981f3cb5d3c" data-name="圖層 2"
  xmlns="http://www.w3.org/2000/svg" viewBox="0 0 577.43 108.05">
  <defs>
    <style>.a31e8fe8-9fba-4570-bb48-d4b25bd6e53c{fill:#fff;}</style>
  </defs>
  <path class="a31e8fe8-9fba-4570-bb48-d4b25bd6e53c" d="M0,0H16.45V71H37.1L35.63,85.42H0Z"/>
  <path class="a31e8fe8-9fba-4570-bb48-d4b25bd6e53c" d="M58.38,55.92v9.84c0,4.33,1,7.48,4.72,7.48,4,0,4.7-3.39,4.7-7.7V64H83.73V65c0,9-2.76,21.54-20.56,21.54-17.34,0-21.08-9.85-21.08-23.7V40c0-11.08,5.11-23,21.13-23,14.19,0,20.72,8.47,20.72,22.9v16Zm9.71-11.67V37.62c0-5.2-1.14-7.58-4.78-7.58-3.12,0-4.85,2.26-4.85,7.58v6.63Z"/>
  <path class="a31e8fe8-9fba-4570-bb48-d4b25bd6e53c" d="M105.91,18.81V69.22c0,2.4,2.76,4.67,5.1,4.7,2.74,0,5.3-2.2,5.3-4.7V18.81h16.3V68.22c0,14.1-9.6,18-21.8,18-12.7,0-21-5.2-21-18.3V18.81Z"/>
  <path class="a31e8fe8-9fba-4570-bb48-d4b25bd6e53c" d="M138.81,18.81h15.1V46.92h.4c1.4-5.5,4.1-18.71,6.2-28.11h17.2L168,44.72l9.8,40.7h-17l-3.8-26-3.1,7.8v18.2h-15.1Z"/>
  <path class="a31e8fe8-9fba-4570-bb48-d4b25bd6e53c" d="M224.74,39.14V64.46c0,14.88-8,22-21.48,22-13.75,0-21-7.32-21-22v-26c0-15.08,9.12-21.52,21.3-21.52C216.34,17,224.74,23.86,224.74,39.14ZM198.66,37.7V65.37c0,4.37,1.23,7.37,4.9,7.37s4.73-2.85,4.73-7.53V37.57c0-4.06-1-7-4.81-7C200.09,30.59,198.66,33.14,198.66,37.7Z"/>
  <path class="a31e8fe8-9fba-4570-bb48-d4b25bd6e53c" d="M271.84,61.53v2.38c0,12.84-3.52,22.58-20.24,22.58-15.82,0-19.73-9.37-19.73-24.09V39.26c0-11.66,4.4-22.28,20.46-22.28C269.76,17,272,28.64,272,37.87V41.2H256.19V37.13c0-4.5-.68-7-3.89-7s-4,2.5-4,6.86V66.38c0,3.91.68,6.82,4,6.82s3.89-2.84,3.89-7.31V61.53Z"/>
  <path class="a31e8fe8-9fba-4570-bb48-d4b25bd6e53c" d="M293.5,18c2.56,17.71,5.36,38.73,5.79,47.38h.61c.92-10.84,2.74-23.73,6-47.38h16.81c-1,3.73-12.24,58.31-14.57,68.69-3.82,17.35-8.83,21.36-20.28,21.36a55,55,0,0,1-7.66-.56l.17-14c.5,0,2.3.26,3.79.26,3.79,0,6-1.06,6.76-5.71L275.75,18Z"/>
  <path class="a31e8fe8-9fba-4570-bb48-d4b25bd6e53c" d="M326.44,18h6.68V5h16.32V18h7.66V32.52h-7.66V67.58c0,3.07.43,4.93,4.22,4.93a13,13,0,0,0,3-.3V84.94c-2.85,1.16-7,1.37-9.45,1.37-9.95,0-14.23-3.55-14.23-15.31V32.52h-6.5Z"/>
  <path class="a31e8fe8-9fba-4570-bb48-d4b25bd6e53c" d="M378,55.92v9.84c0,4.33,1,7.48,4.73,7.48,4,0,4.69-3.39,4.69-7.7V64H403.3V65c0,9-2.75,21.54-20.55,21.54-17.35,0-21.09-9.85-21.09-23.7V40c0-11.08,5.12-23,21.14-23,14.19,0,20.72,8.47,20.72,22.9v16Zm9.71-11.67V37.62c0-5.2-1.13-7.58-4.77-7.58-3.13,0-4.86,2.26-4.86,7.58v6.63Z"/>
  <path class="a31e8fe8-9fba-4570-bb48-d4b25bd6e53c" d="M434.12,44.35V58.3H410V44.35Z"/>
  <path class="a31e8fe8-9fba-4570-bb48-d4b25bd6e53c" d="M441.94,0h16.45V71H479l-1.47,14.38H441.94Z"/>
  <path class="a31e8fe8-9fba-4570-bb48-d4b25bd6e53c" d="M525.34,70c0,6,.09,12.46.39,15.42h-15.3a35.66,35.66,0,0,1-1-5c-2.57,4.2-6.43,5.94-11.5,5.94-10.29,0-14.39-9.48-14.39-19.78V65.38c0-17.26,11.7-21.4,24.23-21.4h1.11V36.13c0-4.54-.65-6.6-3.69-6.6s-3.77,2.23-3.77,6.16v1.57H485.6v-1c0-11.71,5.33-19.24,20.29-19.24,13.32,0,19.45,6.32,19.45,18.09ZM509.05,55.5h-1.56c-4.82,0-8,2.13-8,9.17v.85c0,4.66,1.53,7.07,4.7,7.07,3.34,0,4.85-2.34,4.85-9.2Z"/>
  <path class="a31e8fe8-9fba-4570-bb48-d4b25bd6e53c" d="M534.9,5h16.45V23.55c2.71-4.67,7.16-6.57,12-6.57,10.12,0,14.12,7.69,14.12,20V61.49c0,14.54-2.42,25-15.65,25-6.57,0-9.57-3.47-11.1-6.88a55.68,55.68,0,0,1-.47,5.81H534.77c.22-4.06.13-11.44.13-16.8ZM561,63.37V39.77c0-5.08-.58-8.55-4.56-8.55s-5.07,3-5.07,8.91V63.7c0,6.2,1.58,8.55,4.86,8.55C559,72.25,561,70,561,63.37Z"/>
</svg>
