<svg id="b5999e28-27bc-4e3a-947a-87f2a2f4538f" data-name="圖層 1" xmlns="http://www.w3.org/2000/svg" viewBox="0 0 421.88 170.83"><defs><style>.bb2e9031-54f4-4b45-9763-cda64f8e770d{fill:#fff;}</style></defs><path class="bb2e9031-54f4-4b45-9763-cda64f8e770d" d="M0,0H32.9V142.08H74.2l-2.94,28.75H0Z"/><path class="bb2e9031-54f4-4b45-9763-cda64f8e770d" d="M91.62,170.83l3-28.93h24.54l-3,28.93Z"/><path class="bb2e9031-54f4-4b45-9763-cda64f8e770d" d="M138.75,0H170.6V74.43h.52c5.41-16.08,16.64-51,24.34-74.43h36.23L203,66.14l29.74,104.69H197.23l-16.87-72-9.76,21.79v50.25H138.75Z"/><path class="bb2e9031-54f4-4b45-9763-cda64f8e770d" d="M381.37,112.51v9.25c0,21.55-4,49.07-43.13,49.07-28.93,0-41.5-15.41-41.5-46.82V45.37C296.74,15.66,311.56,0,338.93,0,375,0,380.87,23.75,380.87,46.11V56.83H347.79V42.25c0-9.4-2-14.16-8.86-14.16s-9,4.49-9,14.16v85.22c0,9.12,1.53,15.34,8.94,15.34,7.1,0,9.21-5.23,9.21-16.1v-14.2Z"/><path class="bb2e9031-54f4-4b45-9763-cda64f8e770d" d="M248.21,170.83l3-28.93H275.7l-2.95,28.93Z"/><path class="bb2e9031-54f4-4b45-9763-cda64f8e770d" d="M394.38,170.83l3-28.93h24.54l-3,28.93Z"/></svg>