<?xml version="1.0" encoding="UTF-8"?>
<svg width="757px" height="462px" viewBox="0 0 757 462" version="1.1" xmlns="http://www.w3.org/2000/svg" xmlns:xlink="http://www.w3.org/1999/xlink">
    <title>undraw_In_progress_re_m1l6</title>
    <g id="Product---ArgusHack" stroke="none" stroke-width="1" fill="none" fill-rule="evenodd">
        <g id="Desktop-HD-1080P" transform="translate(-218.000000, -960.000000)" fill-rule="nonzero">
            <g id="Features" transform="translate(218.000000, 712.000000)">
                <g id="undraw_In_progress_re_m1l6" transform="translate(0.000000, 248.000000)">
                    <path d="M498.195822,462 L1.30417755,462 C0.583900176,462 0,461.328427 0,460.5 C0,459.671573 0.583900176,459 1.30417755,459 L498.195822,459 C498.9161,459 499.5,459.671573 499.5,460.5 C499.5,461.328427 498.9161,462 498.195822,462 Z" id="Path" fill="#CBCBCB"></path>
                    <path d="M147.517617,226.654023 L132.380695,153.230531 L125.731283,99 L111,108.433696 L113.035012,168.195803 L136.547537,230.115118 C135.00202,233.029125 135.388021,236.57868 137.524642,239.100309 C139.661263,241.621938 143.125107,242.61595 146.292868,241.616507 C149.460629,240.617064 151.704576,237.822219 151.973098,234.541756 C152.241621,231.261293 150.481509,228.145277 147.517626,226.654006 L147.517617,226.654023 Z" id="Path" fill="#FFB7B7"></path>
                    <path d="M7.46106301,232.282621 L11.6527604,157.547686 L10.2643591,103 L29.7474842,110.204426 L33,169.555084 L18.8276704,234.125654 C20.7856406,236.783112 20.9252396,240.346354 19.1810452,243.145494 C17.4368508,245.944633 14.1544974,247.424984 10.8722371,246.89279 C7.58997685,246.360596 4.95823144,243.921318 4.2103501,240.718107 C3.46246876,237.514897 4.74665371,234.18251 7.46108059,232.282647 L7.46106301,232.282621 Z" id="Path" fill="#FFB7B7"></path>
                    <polygon id="Path" fill="#FFB7B7" points="48.0017948 450 58.164822 449.99913 63 412 48 412.00087"></polygon>
                    <path d="M45,447.000806 L64.5441433,447 L64.5449407,447 C71.4234484,447.000382 76.9995161,452.636718 77,459.58968 L77,459.998804 L45.0005959,460 L45,447.000806 Z" id="Path" fill="#2F2E41"></path>
                    <polygon id="Path" fill="#FFB7B7" points="85 445.496492 94.6499396 447 105 410.219216 90.7578893 408"></polygon>
                    <path d="M82.9760314,443 L102.39167,445.88568 L102.392454,445.885799 C109.225639,446.902033 113.907936,453.047942 112.851116,459.613673 L112.788902,460 L81,455.275191 L82.9760314,443 Z" id="Path" fill="#2F2E41"></path>
                    <path d="M44.8138911,439 L44.7629553,438.724248 L9.18566506,245.777773 C6.36144428,230.288076 8.61413783,214.297477 15.6065918,200.199243 L37.1400746,157 L101.393856,165.73166 L108.976899,220.731243 L136,325.650937 L135.973239,325.736349 L101.350799,436.052132 L78.6597556,437.549223 L98.7598608,339.076778 L61.9555218,255.225339 L64.5515279,437.499837 L44.8138911,439 Z" id="Path" fill="#2F2E41"></path>
                    <path d="M102.895121,173 L102.47152,172.335599 C102.395426,172.215793 94.5991578,160.457827 73.3837696,168.308433 C51.7262665,176.324146 34.9449338,160.842477 34.7778633,160.685275 L34.6947831,160.606821 L29.7900439,116.846183 L24,81.3211136 L42.4310618,78.0842365 L51.4925152,72.6422059 L87.5252324,72 L97.0072527,79.4653315 L112.574886,81.1635903 L114,113.533316 L113.993465,113.568586 L102.895121,173 Z" id="Path" fill="#9E3CDD"></path>
                    <path d="M108,116 L108,88.065617 L112.462813,80.0055178 L112.644284,80 C116.157538,80.1296723 119.478024,81.6226864 121.887645,84.1561587 C126.376463,88.669645 128.409933,96.1894987 127.931644,106.506603 L127.922808,106.69538 L108,116 Z" id="Path" fill="#9E3CDD"></path>
                    <path d="M32,114 L9.18242187,111.278369 L9.16456097,111.017163 C8.38609198,99.7080106 10.3721789,91.3131266 15.0675283,86.0662569 C19.3289156,81.3044189 24.2117379,81.0160517 24.4175415,81.006167 L24.5492512,81 L30.726053,86.5809429 L32,114 Z" id="Path" fill="#9E3CDD"></path>
                    <path d="M96.4328409,60 L37.5671591,60 C35.0459607,59.9971544 33.0028352,57.9499511 33,55.4237256 L33,34.0677927 C33,15.2526702 48.2223189,0 67,0 C85.7776811,0 101,15.2526702 101,34.0677927 L101,55.4237256 C100.997165,57.9499511 98.9540393,59.9971544 96.4328409,60 L96.4328409,60 Z" id="Path" fill="#2F2E41"></path>
                    <circle id="Oval" fill="#FFB7B7" transform="translate(68.269952, 38.300169) rotate(-61.336850) translate(-68.269952, -38.300169) " cx="68.2699521" cy="38.3001692" r="26.5"></circle>
                    <path d="M92.475679,36 L59.7352074,36 C58.4626305,35.9983049 57.3896836,35.0368396 57.2304775,33.7555083 L56.8064939,30.3142382 C56.7229001,29.6344438 56.2060534,29.0928765 55.5392219,28.9863533 C54.8723904,28.87983 54.2165997,29.2340738 53.931269,29.8549343 L51.7849481,34.5220151 C51.3682365,35.4220605 50.4775314,35.9976019 49.4976394,36 L44.5244122,36 C43.8130319,36 43.1346093,35.6956751 42.6561419,35.1614244 C42.1776745,34.6271736 41.9436037,33.9128025 42.0115472,33.1941573 L43.9724866,12.407412 C44.0579074,11.5027289 44.6058101,10.7102855 45.4150355,10.3210228 C60.409153,3.21733239 75.6142854,3.22633422 90.6084289,10.3480458 C91.3811587,10.7166368 91.9183283,11.4561894 92.0366352,12.3143405 L94.9742274,33.0740714 C95.0785676,33.8095285 94.8630138,34.5547182 94.3835094,35.1162386 C93.904005,35.6777589 93.2078287,36 92.4756617,36 L92.475679,36 Z" id="Path" fill="#2F2E41"></path>
                    <polygon id="Path" fill="#3F3D56" points="303.968272 177.321376 459.170105 177.321376 510.973372 125 569.5 125 569.5 126.739225 511.697493 126.739225 459.894226 179.060601 452.806112 179.060601 304.698478 179.060601"></polygon>
                    <polygon id="Path" fill="#3F3D56" points="147 230.770368 200.428498 177.321376 303.968272 177.321376 356.208446 123.983695 458.410377 123.983695 509.973372 72 750 72 750 73.739225 510.697493 73.739225 459.134498 125.72292 452.046384 125.72292 356.938652 125.72292 304.698478 179.060601 201.149142 179.060601 148.229181 232"></polygon>
                    <circle id="Oval" fill="#FFFFFF" cx="358" cy="125" r="32"></circle>
                    <circle id="Oval" fill="#CBCBCB" cx="510.5" cy="72.5" r="8.5"></circle>
                    <circle id="Oval" fill="#CBCBCB" cx="461.5" cy="177.5" r="8.5"></circle>
                    <circle id="Oval" fill="#CBCBCB" cx="748.5" cy="72.5" r="8.5"></circle>
                    <circle id="Oval" fill="#CBCBCB" cx="629.5" cy="72.5" r="8.5"></circle>
                    <circle id="Oval" fill="#CBCBCB" cx="569.5" cy="125.5" r="8.5"></circle>
                    <path d="M358,158 C339.774603,158 325,143.225397 325,125 C325,106.774603 339.774603,92 358,92 C376.225397,92 391,106.774603 391,125 C390.979388,143.216852 376.216852,157.979388 358,158 L358,158 Z M358,93.7368421 C340.733835,93.7368421 326.736842,107.733835 326.736842,125 C326.736842,142.266165 340.733835,156.263158 358,156.263158 C375.266165,156.263158 389.263158,142.266165 389.263158,125 C389.243723,107.741891 375.258109,93.7562773 358,93.7368421 L358,93.7368421 Z" id="Shape" fill="#3F3D56"></path>
                    <circle id="Oval" fill="#FE004D" cx="358" cy="125" r="23"></circle>
                    <circle id="Oval" fill="#FFFFFF" cx="199" cy="178" r="32"></circle>
                    <path d="M199,211 C180.774603,211 166,196.225397 166,178 C166,159.774603 180.774603,145 199,145 C217.225397,145 232,159.774603 232,178 C231.979349,196.216836 217.216836,210.979349 199,211 L199,211 Z M199,146.736842 C181.733835,146.736842 167.736842,160.733835 167.736842,178 C167.736842,195.266165 181.733835,209.263158 199,209.263158 C216.266165,209.263158 230.263158,195.266165 230.263158,178 C230.24368,160.741909 216.258091,146.75632 199,146.736842 L199,146.736842 Z" id="Shape" fill="#3F3D56"></path>
                    <circle id="Oval" fill="#006ADA" cx="199" cy="178" r="23"></circle>
                    <polygon id="Path" fill="#FFFFFF" points="196.897448 187 190 178.330403 194.011016 175.280621 197.27754 179.385343 208.310667 168 212 171.417052"></polygon>
                </g>
            </g>
        </g>
    </g>
</svg>